<svg xmlns="http://www.w3.org/2000/svg" viewBox="0 0 30 30"><title>Add Icon</title><style>.st0{fill:#fff}.st1{fill:#1f6db1}</style><path d="M14.9 1.2c7.5 0 13.7 6.2 13.8 13.8-.1 7.6-6.3 13.7-13.8 13.7-7.5 0-13.7-6.2-13.7-13.8 0-7.5 6.2-13.7 13.7-13.7" class="st0"/><path d="M14.9 1.2c7.5 0 13.7 6.2 13.8 13.8-.1 7.6-6.3 13.7-13.8 13.7-7.5 0-13.7-6.2-13.7-13.8 0-7.5 6.2-13.7 13.7-13.7m0-1C6.8.2.2 6.8.2 14.9s6.6 14.7 14.7 14.8c8.1 0 14.7-6.6 14.8-14.7C29.7 6.9 23.1.2 14.9.2z" class="st1"/><path d="M21 16h-5v5h-2v-5H9v-2h5V9h2v5h5z" class="st1"/></svg>
