<svg width="40" height="40" viewBox="0 0 40 40" fill="none" xmlns="http://www.w3.org/2000/svg">
<path fill-rule="evenodd" clip-rule="evenodd" d="M20 40C31.0457 40 40 31.0457 40 20C40 8.95431 31.0457 0 20 0C8.95431 0 0 8.95431 0 20C0 31.0457 8.95431 40 20 40Z" fill="#1F6DB1"/>
<path fill-rule="evenodd" clip-rule="evenodd" d="M26.0046 12.7562C23.8861 11.9857 21.6156 12.4702 20.0006 13.8234C18.3846 12.4702 16.1141 11.9857 13.9956 12.7562C10.8363 13.9057 9.20123 17.4112 10.3518 20.5705C11.9151 24.8677 19.9542 29.1258 19.9542 29.1258C19.9542 29.1258 19.9721 29.0814 20.0006 29.0086C20.0281 29.0814 20.046 29.1258 20.046 29.1258C20.046 29.1258 28.0851 24.8677 29.6484 20.5705C30.7989 17.4112 29.1639 13.9057 26.0046 12.7562" fill="white"/>
</svg>
