<svg width="40" height="40" viewBox="0 0 40 40" fill="none" xmlns="http://www.w3.org/2000/svg">
<path fill-rule="evenodd" clip-rule="evenodd" d="M20 40C31.0457 40 40 31.0457 40 20C40 8.95431 31.0457 0 20 0C8.95431 0 0 8.95431 0 20C0 31.0457 8.95431 40 20 40Z" fill="#1F6DB1"/>
<path fill-rule="evenodd" clip-rule="evenodd" d="M20.0004 28.4448C15.3349 28.4448 11.556 24.6659 11.556 20.0003C11.556 15.3348 15.3349 11.5559 20.0004 11.5559C24.666 11.5559 28.4449 15.3348 28.4449 20.0003C28.4449 24.6659 24.666 28.4448 20.0004 28.4448M19.9896 9.44476C14.163 9.44476 9.44464 14.1726 9.44464 20.0003C9.44464 25.827 14.163 30.5559 19.9896 30.5559C25.8269 30.5559 30.5558 25.827 30.5558 20.0003C30.5558 14.1726 25.8269 9.44476 19.9896 9.44476" fill="white"/>
<path fill-rule="evenodd" clip-rule="evenodd" d="M20.528 14.722H18.9446V21.0553L24.4863 24.3803L25.278 23.082L20.528 20.2637V14.722Z" fill="white"/>
</svg>
