<svg width="40" height="40" viewBox="0 0 40 40" fill="none" xmlns="http://www.w3.org/2000/svg">
<path fill-rule="evenodd" clip-rule="evenodd" d="M20 39.0244C31.0457 39.0244 40 30.2885 40 19.5122C40 8.73591 31.0457 0 20 0C8.95431 0 0 8.73591 0 19.5122C0 30.2885 8.95431 39.0244 20 39.0244Z" fill="#1F6DB1"/>
<path fill-rule="evenodd" clip-rule="evenodd" d="M20 30.5366C16.25 30.5366 12.935 28.6634 11 25.8244C11.045 22.9122 17 21.3171 20 21.3171C22.985 21.3171 28.955 22.9122 29 25.8244C27.065 28.6634 23.75 30.5366 20 30.5366M20 9.7561C22.49 9.7561 24.5 11.7171 24.5 14.1463C24.5 16.5756 22.49 18.5366 20 18.5366C17.51 18.5366 15.5 16.5756 15.5 14.1463C15.5 11.7171 17.51 9.7561 20 9.7561" fill="white"/>
</svg>
