<?xml version="1.0" encoding="UTF-8"?>
<svg width="23px" height="74px" viewBox="0 0 23 74" version="1.1" xmlns="http://www.w3.org/2000/svg" xmlns:xlink="http://www.w3.org/1999/xlink">
    <!-- Generator: Sketch 50.2 (55047) - http://www.bohemiancoding.com/sketch -->
    <title>New/icons/alerts/Information Default</title>
    <desc>Created with Sketch.</desc>
    <defs></defs>
    <g id="Page-1" stroke="none" stroke-width="1" fill="none" fill-rule="evenodd">
        <g id="Updated-Alerts" transform="translate(-50.000000, -50.000000)" fill="#1F6DB1">
            <g id="New/icons/alerts/information" transform="translate(50.000000, 50.000000)">
                <path d="M10.35,8.05 L12.65,8.05 L12.65,5.75 L10.35,5.75 L10.35,8.05 Z M10.35,17.25 L12.65,17.25 L12.65,10.35 L10.35,10.35 L10.35,17.25 Z M11.5,0 C5.152,0 0,5.152 0,11.5 C0,17.848 5.152,23 11.5,23 C17.848,23 23,17.848 23,11.5 C23,5.152 17.848,0 11.5,0 Z" id="informationicon"></path>
            </g>
        </g>
        <g id="Updated-Alerts-Hover" transform="translate(-50, -80.000000)">
            <g id="New/icons/alerts/information-hover" transform="translate(50.000000, 105.000000)">
                <rect id="Square" fill="#011D6E" x="0" y="0" width="23" height="23" rx="4"></rect>
                <path d="M10.35,8.05 L12.65,8.05 L12.65,5.75 L10.35,5.75 L10.35,8.05 Z M10.35,17.25 L12.65,17.25 L12.65,10.35 L10.35,10.35 L10.35,17.25 Z" id="informationicon" fill="#FFFFFF"></path>
            </g>
        </g>
        <g id="Updated-Alerts" transform="translate(-50.000000, -156.000000)" fill="#011D6E">
            <g id="New/icons/alerts/information-selected" transform="translate(50.000000, 206.000000)">
                <path d="M10.35,17.25 L12.65,17.25 L12.65,10.35 L10.35,10.35 L10.35,17.25 Z M10.35,8.05 L12.65,8.05 L12.65,5.75 L10.35,5.75 L10.35,8.05 Z M11.5,23 C17.848,23 23,17.848 23,11.5 C23,5.152 17.848,0 11.5,0 C5.152,0 0,5.152 0,11.5 C0,17.848 5.152,23 11.5,23 Z" id="Page-1"></path>
            </g>
        </g>
    </g>
</svg>