<svg data-name="Layer 4" xmlns="http://www.w3.org/2000/svg" viewBox="0 0 109 70"><title>MHR-Logo</title><path d="M107.7 24.63a1 1 0 0 1 0 1.44L98 35.8a1 1 0 0 1-1.45 0l-9.73-9.72a1 1 0 0 1 0-1.44l9.75-9.73a1 1 0 0 1 1.45 0z" fill="#d5d7d8"/><path d="M62.41 35.28V23.9a1.18 1.18 0 0 0-.3-.73l-2.82-2.81a.88.88 0 0 0-.72-.21l-.57.12a.87.87 0 0 1-.72-.21l-.3-.3 4.87-4.86-9.73 9.72a1 1 0 0 0 0 1.44l9.55 9.53c.4.41.74.28.74-.31z" fill="#b4b6b7"/><path d="M52.11 24.62L57 19.76l-5-5c-.42-.42-.76-.28-.76.31v9a3 3 0 0 0 .76 1.86l.13.13a1 1 0 0 1-.02-1.44z" fill="#d5d7d8"/><path d="M85.4 47.14V35.76a1.18 1.18 0 0 1 .3-.73l2.82-2.81a.87.87 0 0 1 .73-.22l.57.13a.87.87 0 0 0 .72-.21l.5-.5-4.87-4.86a1 1 0 0 0-1.45 0L75 36.3a1 1 0 0 0 0 1.44l9.73 9.72a1 1 0 0 0 1.11.22c-.26.07-.44-.12-.44-.54z" fill="#ef4123"/><path d="M95.85 3.24l-5.3 5.29a.87.87 0 0 1-.72.21l-.57-.13a.87.87 0 0 0-.72.21l-2.82 2.81a1.18 1.18 0 0 0-.3.73v11.38c0 .59.34.73.76.31l9.68-9.66a3 3 0 0 0 .76-1.83v-9c-.01-.56-.35-.74-.77-.32z" fill="#faa61a"/><path d="M63.3 26.05l-.09-.11a3 3 0 0 1-.64-1.69v-9c0-.36.13-.56.33-.55a1 1 0 0 0-1 .25L57 19.76l.3.3a.87.87 0 0 0 .72.21l.57-.13a.88.88 0 0 1 .72.21l2.82 2.81a1.18 1.18 0 0 1 .3.73v11.39c0 .59-.34.73-.76.31l.2.2a1 1 0 0 0 1.45 0l4.88-4.87z" fill="#d5d7d8"/><path d="M63.27 24.58l4.87-4.86-4.84-4.82c-.42-.42-.76-.28-.76.31v9a3 3 0 0 0 .64 1.69 1 1 0 0 1 .09-1.32z" fill="#5182a8"/><path d="M96 36.33l-5-4.9-.5.5a.87.87 0 0 1-.72.21l-.53-.14a.87.87 0 0 0-.72.21L85.71 35a1.18 1.18 0 0 0-.3.73v11.41c0 .59.34.73.76.31l9.68-9.66a2.91 2.91 0 0 0 .65-1.18 1 1 0 0 1-.5-.28z" fill="#b10f1f"/><path d="M96.6 27c0-.59-.34-.73-.76-.31L91 31.43l5 4.9a1 1 0 0 0 .54.28 2.33 2.33 0 0 0 .06-.61v-9z" fill="#a32527"/><path d="M73.18 24.8a1 1 0 0 1-.18 1.28l-4.86 4.85L73 35.71c.42.42.76.28.76-.31v-9a3 3 0 0 0-.58-1.6z" fill="#216db2"/><path d="M68.13 19.72l-4.87 4.86a1 1 0 0 0-.09 1.34l.12.14 4.88 4.87L73 26.08a1 1 0 0 0 0-1.46z" fill="#1a619b"/><path d="M84.19 24.59l-9.75-9.73a1 1 0 0 0-1.45 0l-4.87 4.86L73 24.55v.06a.93.93 0 0 1 .14.18 3 3 0 0 1 .55 1.58v9c0 .59-.34.73-.76.31a1 1 0 0 0 1.45 0L84.19 26a1 1 0 0 0 0-1.41z" fill="#33a3dc"/><path d="M50.93 47.17V35.79a1.19 1.19 0 0 0-.3-.73l-2.82-2.81a.87.87 0 0 0-.73-.25l-.57.13a.86.86 0 0 1-.72-.13l-.5-.5 4.87-4.86a1 1 0 0 1 1.45 0l9.75 9.73a1 1 0 0 1 0 1.45l-9.73 9.72a1 1 0 0 1-1.11.22c.23.02.41-.18.41-.59z" fill="#8dc63f"/><path d="M40.37 36.36l4.92-4.91.5.5a.86.86 0 0 0 .72.21l.57-.16a.87.87 0 0 1 .72.21l2.82 2.81a1.19 1.19 0 0 1 .3.73v11.38c0 .59-.34.73-.76.32l-9.68-9.66a2.94 2.94 0 0 1-.65-1.18 1 1 0 0 0 .54-.25z" fill="#005826"/><path d="M39.74 27c0-.59.34-.73.76-.31l4.8 4.79-4.92 4.91a1 1 0 0 1-.54.28 2.33 2.33 0 0 1-.1-.64q-.01-4.54 0-9.03z" fill="#006631"/><path d="M1.7 64.26c.6-.12.72-.2.72-.47v-6.9c0-.26 0-.29-.26-.34l-.25-.07-.21-.07v-.46h1.81l3 7.64 3-7.64h1.75v.46c-.62.11-.72.16-.72.47v6.9c0 .29.07.34.51.43h.21v.42H8.93v-.37c.7-.18.73-.22.73-.79v-6.22l-2.93 7.43h-.66l-2.93-7.43v6.54c0 .24.09.31.43.41l.26.07v.42H1.7v-.43zM14.13 58.48v.45L14 59h-.28c-.2 0-.29.09-.29.18a.68.68 0 0 0 0 .18l1.6 4.38 1.63-4.38a.56.56 0 0 0 0-.13c0-.09-.1-.16-.31-.2l-.35-.1v-.45h2.26v.45a1.41 1.41 0 0 1-.29.08c-.45.12-.46.12-.55.37L15.68 64c-1.06 2.91-1.13 3-2.47 3h-.26v-.58c1.12 0 1.13 0 1.72-1.52l-2-5.53c-.15-.3-.17-.31-.67-.37a.71.71 0 0 1-.2 0v-.52h2.34zM22.07 64.27c.54-.07.72-.2.72-.55v-6.84c0-.29-.05-.34-.41-.41l-.31-.08v-.47h2.35v.47c-.55.11-.72.21-.72.49v2.89h4.65v-2.89c0-.28-.12-.37-.59-.46h-.14v-.5H30v.47h-.08c-.6.16-.63.18-.63.46v6.84c0 .41 0 .41.71.55v.41h-2.39v-.38c.67-.14.74-.2.74-.55V60.4H23.7v3.32c0 .33.07.38.49.49l.24.07v.41h-2.36v-.42zM32 61.74v.21a3.39 3.39 0 0 0 .46 1.55 1.77 1.77 0 0 0 1.5.83 1.94 1.94 0 0 0 1.82-1.48h.85a3 3 0 0 1-.67 1.27 2.73 2.73 0 0 1-2 .84c-1.69 0-2.81-1.33-2.81-3.35s1.14-3.35 2.82-3.35a2.45 2.45 0 0 1 2.19 1.25 4 4 0 0 1 .5 1.82 2.61 2.61 0 0 1 0 .41H32zm3.82-.56a2.51 2.51 0 0 0-.47-1.55 1.72 1.72 0 0 0-1.4-.75 1.8 1.8 0 0 0-1.5.87 2.57 2.57 0 0 0-.45 1.42h3.82zM37.79 60.2c.12-1.33 1-2 2.51-2a3 3 0 0 1 1.54.37 1.35 1.35 0 0 1 .71 1.37v3.87c0 .26.1.35.46.42l.24.05v.39h-.9c-.51 0-.63-.13-.63-.75a2.49 2.49 0 0 1-2 .95A1.89 1.89 0 0 1 37.53 63a1.84 1.84 0 0 1 1.77-1.84l1.38-.16c.81-.14 1-.29 1-.91a1 1 0 0 0-.34-.91 1.52 1.52 0 0 0-1-.33 1.49 1.49 0 0 0-1.61.81 4.32 4.32 0 0 0-.12.56h-.82zm1.68 1.59a1.19 1.19 0 0 0-1.1 1.21 1.26 1.26 0 0 0 1.38 1.29 1.81 1.81 0 0 0 1.54-.83 2.69 2.69 0 0 0 .45-1.72v-.49a3.33 3.33 0 0 1-.88.3zM44.37 64.3h.16c.45-.07.56-.14.56-.39v-7.1c0-.25 0-.26-.24-.33l-.49-.18v-.38h1.57v8c0 .22.08.29.49.37l.22.05v.38h-2.27v-.42zM47.43 58.47h1v-1.9h.84v1.9h1.09V59h-1.09v4.46c0 .55.1.64.79.75a1.41 1.41 0 0 1 .3.07v.37h-.62c-1 0-1.31-.31-1.31-1.17V59h-1v-.53zM51.26 56h1.56v3.41a2.21 2.21 0 0 1 2-1.12 2 2 0 0 1 1.85.93 2.48 2.48 0 0 1 .33 1.24v3.43c0 .16.07.22.3.29l.42.12v.38h-2.33v-.38c.53-.09.72-.2.72-.41v-3.43a1.56 1.56 0 0 0-.39-1.23 1.63 1.63 0 0 0-1-.33 1.79 1.79 0 0 0-1.86 1.8v3.19c0 .21.12.28.72.41v.38h-2.32v-.38c.6-.16.72-.22.72-.41v-7c0-.29-.07-.34-.5-.42h-.22V56zM61.82 64.26l.39-.12c.28-.08.34-.16.34-.34v-7c0-.24-.08-.3-.47-.38l-.26-.07v-.43h4.71a2.4 2.4 0 0 1 1.92.68 2.51 2.51 0 0 1 .56 1.6 2.23 2.23 0 0 1-.62 1.6 2 2 0 0 1-.84.51l-.14.07a1.54 1.54 0 0 1 1 .68 2.79 2.79 0 0 1 .31 1.26v1.22a.52.52 0 0 0 .54.64l.28.07v.42h-.8c-.68 0-.92-.28-.92-1.13v-1.38a1.57 1.57 0 0 0-1.76-1.52h-2.61v3.06a1.32 1.32 0 0 1 0 .26.56.56 0 0 0 .37.17l.35.12v.42h-2.35v-.41zM66.17 60a3.08 3.08 0 0 0 1-.14 1.71 1.71 0 0 0 1-1.57 1.66 1.66 0 0 0-1.67-1.71h-3V60h2.72zM71 61.74v.21a3.39 3.39 0 0 0 .46 1.55 1.77 1.77 0 0 0 1.5.83 1.94 1.94 0 0 0 1.82-1.48h.85a3 3 0 0 1-.67 1.27 2.73 2.73 0 0 1-2 .84c-1.69 0-2.81-1.33-2.81-3.35s1.14-3.35 2.82-3.35a2.45 2.45 0 0 1 2.19 1.25 4 4 0 0 1 .5 1.82 2.61 2.61 0 0 1 0 .41H71zm3.82-.56a2.51 2.51 0 0 0-.47-1.55 1.72 1.72 0 0 0-1.4-.75 1.8 1.8 0 0 0-1.5.87 2.57 2.57 0 0 0-.45 1.42h3.82zM81.54 58.42h.56v2h-.84a1.78 1.78 0 0 0-1.77-1.5c-1.23 0-2 1.08-2 2.78s.8 2.68 2 2.68a1.89 1.89 0 0 0 1.82-1.72h.79A2.67 2.67 0 0 1 79.4 65c-1.67 0-2.81-1.37-2.81-3.32s1.17-3.36 2.89-3.36a2.13 2.13 0 0 1 1.93 1zM88.86 61.58c0 2-1.18 3.36-2.93 3.36a2.66 2.66 0 0 1-2.1-.94 3.36 3.36 0 0 1-.8-2.38c0-2 1.18-3.37 2.93-3.37s2.9 1.36 2.9 3.33zm-5-.09a2.91 2.91 0 0 0 .77 2.27 2 2 0 0 0 1.39.56 1.71 1.71 0 0 0 1.08-.43 2.87 2.87 0 0 0 .9-2.35c0-1.56-.87-2.69-2.06-2.69s-2.05 1.04-2.05 2.64zM90 58.47h1.59v1.34a2.29 2.29 0 0 1 .83-1.18 1.69 1.69 0 0 1 1.08-.35h.14v.79h-.22a1.57 1.57 0 0 0-1.55.92 3.26 3.26 0 0 0-.29 1.13v2.78c0 .24.1.3.51.38l.25.05v.35H90v-.36l.29-.05c.35-.07.47-.16.47-.38v-4.46c0-.24 0-.3-.2-.37a3 3 0 0 0-.56-.16v-.43zM98.84 56.87c0-.3 0-.3-.79-.49V56h1.64v7.85c0 .25.08.33.43.42l.29.09v.35h-1.57v-.9a2.15 2.15 0 0 1-2 1.1c-1.67 0-2.74-1.3-2.74-3.29s1.08-3.37 2.73-3.37a2.14 2.14 0 0 1 2 1.21v-2.59zM95 61.74a2.85 2.85 0 0 0 .64 2 1.48 1.48 0 0 0 1.25.54c1.39 0 2.06-.87 2.06-2.68a3.3 3.3 0 0 0-.33-1.71 1.91 1.91 0 0 0-1.64-1C95.74 58.87 95 60 95 61.74z" fill="#414042"/></svg>