<svg id="Layer_2" data-name="Layer 2" xmlns="http://www.w3.org/2000/svg" viewBox="0 0 128.33 65.34"><title>AGDOH-Logo</title><circle cx="57.24" cy="19.85" r="0.24" fill="#231f20"/><path d="M61.65,11.19h0v7.08a1.61,1.61,0,0,0,.69,1.46l3.37,2a0.4,0.4,0,0,0,.31.14,0.41,0.41,0,0,0,.27-0.11l3.42-2a1.61,1.61,0,0,0,.69-1.46V11.19H61.65Zm1.44,0.68,0.14,0,0.09-.15,0.08,0.15,0.14,0L63.47,12l0.11,0.11-0.14,0v0.15l-0.13-.1-0.13.1V12.13l-0.14,0L63.15,12Zm0,1.59c0.25,0,.18.25,0.23,0.25s0-.25.17-0.25,0.57,0.65.28,0.65c-0.12,0,0-.09,0-0.11a0.09,0.09,0,0,0-.09-0.06,1.61,1.61,0,0,0-.18.14s-0.09,0-.09-0.05a0.35,0.35,0,0,1,.14-0.12,0.83,0.83,0,0,0-.67.26c-0.15,0,.13-0.27.2-0.35a1.43,1.43,0,0,1-.31-0.23c0.06-.09.09,0,0.17,0A0.15,0.15,0,0,1,63,13.46Zm0,2.16,0.11-.11-0.07-.12h0.14l0.09-.15,0.08,0.15h0.14l-0.07.12,0.11,0.11-0.14,0V15.8l-0.13-.1-0.13.1V15.65Zm-1.15-4.19h0.92v1.81H61.89V11.43ZM62,13.87l0.11-.11L62,13.64h0.14l0.08-.15,0.08,0.15H62.5l-0.07.12,0.11,0.11-0.14,0V14L62.27,14l-0.13.1V13.9Zm-0.11.53h0.92v1.72H61.89V14.41Zm2.67,6.37-2.1-1.25a1.52,1.52,0,0,1-.57-1.17v-2h2.67v4.41Zm0-4.65H63.8V14.41h0.76v1.72ZM64,13.64h0.14l0.09-.15,0.08,0.15H64.5l-0.07.12,0.11,0.11-0.14,0V14L64.28,14l-0.13.1V13.9l-0.14,0,0.11-.11Zm0.51-.4H63.8V11.43h0.76v1.81Zm2.7,7.68-1,.58h0a0.4,0.4,0,0,1-.26.09,0.39,0.39,0,0,1-.26-0.09l-1-.57V16.37h2.46v4.56Zm0-4.8H64.8v-4.7h2.46v4.7Zm2.91,2.23a1.51,1.51,0,0,1-.57,1.17l-2.1,1.25V16.37h2.67v2Zm0-2.23H67.5v-4.7h2.67v4.7Z" transform="translate(-1.89 -1.37)" fill="#231f20"/><path d="M62,17.56a0.11,0.11,0,0,0,.08.11,0.34,0.34,0,0,0,0,.25,0.72,0.72,0,0,0,.61.82c0.18,0,.15-0.13.17-0.19,0,0.1.1,0,.1,0.12a2.24,2.24,0,0,1-.18.24,2.37,2.37,0,0,1,.28.22,2.68,2.68,0,0,1,0,.36c0,0.07.3-.1,0.28-0.13a0.47,0.47,0,0,0,.2.23,1.16,1.16,0,0,0,.17-0.23s0.27,0.2.27,0.1a1.57,1.57,0,0,0-.11-0.33,1.44,1.44,0,0,1,.31-0.22A0.3,0.3,0,0,1,64,18.77s-0.28-.41.06-0.19,0.4-.55.38-0.59a0.54,0.54,0,0,0-.24.08,1.05,1.05,0,0,1,.26-0.34c0-.11-0.16,0-0.31.07,0.5-.71.18-0.42-0.1-0.37,0.44-.48.33-0.47,0-0.32a0.56,0.56,0,0,0,.27-0.52,1.05,1.05,0,0,0-.46.57,1.21,1.21,0,0,1-.17.63c-0.13.14,0-.53-0.37-0.53a0.54,0.54,0,0,0-.45.12,0.33,0.33,0,0,1,.18.25c0,0.07.06,0.27-.05,0.27a0.43,0.43,0,0,1-.25-0.36c0-.12,0-0.09,0-0.26a1,1,0,0,0-.65-0.68,4.23,4.23,0,0,1,.26.5c-0.11,0-.26-0.2-0.26-0.08s0.16,0.15.16,0.26-0.19,0-.19.08a0.78,0.78,0,0,0,.13.19A0.13,0.13,0,0,0,62,17.56Z" transform="translate(-1.89 -1.37)" fill="#231f20"/><ellipse cx="71.87" cy="18.21" rx="0.29" ry="0.25" fill="#231f20"/><ellipse cx="70.71" cy="18.91" rx="0.29" ry="0.25" fill="#231f20"/><ellipse cx="56.85" cy="20.5" rx="0.29" ry="0.25" fill="#231f20"/><ellipse cx="57.75" cy="20.58" rx="0.29" ry="0.25" fill="#231f20"/><path d="M84.8,12a1.81,1.81,0,0,0-.22-1.91,0.57,0.57,0,0,0-.23-0.38,2.3,2.3,0,0,0,.28,1.94C84.66,11.8,84.63,12,84.8,12Z" transform="translate(-1.89 -1.37)" fill="#231f20"/><path d="M47.85,12c0.08,0,.06.14,0.14,0.06a2.76,2.76,0,0,1,0-1.22,1.1,1.1,0,0,0-.46-0.75,0.12,0.12,0,0,0-.15,0C47.53,10.69,47.26,11.54,47.85,12Z" transform="translate(-1.89 -1.37)" fill="#231f20"/><path d="M85.7,11.27a0.35,0.35,0,0,0,.2-0.42,0.4,0.4,0,0,0-.4-0.15,0.36,0.36,0,0,0-.18.4A0.4,0.4,0,0,0,85.7,11.27Z" transform="translate(-1.89 -1.37)" fill="#231f20"/><path d="M46.86,11.87a0.46,0.46,0,0,0,.2-0.34,0.38,0.38,0,0,0-.26-0.2,0.35,0.35,0,0,0-.29.14,0.28,0.28,0,0,0,.06.32A0.39,0.39,0,0,0,46.86,11.87Z" transform="translate(-1.89 -1.37)" fill="#231f20"/><path d="M86.09,12.18A0.35,0.35,0,0,0,86.5,12a0.34,0.34,0,0,0,0-.24,0.49,0.49,0,0,0-.32-0.16,0.48,0.48,0,0,0-.26.28A0.41,0.41,0,0,0,86.09,12.18Z" transform="translate(-1.89 -1.37)" fill="#231f20"/><path d="M85.32,12.28a0.34,0.34,0,0,0,.32-0.15c0-.09.11-0.25,0-0.31a0.38,0.38,0,0,0-.29-0.08,0.34,0.34,0,0,0-.21.35A0.47,0.47,0,0,0,85.32,12.28Z" transform="translate(-1.89 -1.37)" fill="#231f20"/><path d="M84.33,12.46c0.2,0,.18-0.25.18-0.42a0.42,0.42,0,0,0-.3-0.17,0.36,0.36,0,0,0-.23.37A0.29,0.29,0,0,0,84.33,12.46Z" transform="translate(-1.89 -1.37)" fill="#231f20"/><path d="M48.53,12.44a0.33,0.33,0,0,0,.2-0.32A0.28,0.28,0,0,0,48.28,12c0,0.09-.17.19-0.06,0.29A0.31,0.31,0,0,0,48.53,12.44Z" transform="translate(-1.89 -1.37)" fill="#231f20"/><path d="M47.64,12.46a0.32,0.32,0,0,0,.17-0.29,0.29,0.29,0,0,0-.34-0.2,0.26,0.26,0,0,0-.14.35A0.28,0.28,0,0,0,47.64,12.46Z" transform="translate(-1.89 -1.37)" fill="#231f20"/><path d="M80.95,14.21a1.61,1.61,0,0,0,.17-0.88,3.19,3.19,0,0,0-.3-1.11c0-.08,0-0.23-0.17-0.19a2.69,2.69,0,0,0-.06,1.7A1.26,1.26,0,0,0,80.95,14.21Z" transform="translate(-1.89 -1.37)" fill="#231f20"/><path d="M46.51,12.58a0.36,0.36,0,0,0,.38.22,0.4,0.4,0,0,0,.2-0.39A0.3,0.3,0,0,0,46.51,12.58Z" transform="translate(-1.89 -1.37)" fill="#231f20"/><path d="M83.3,14.34a2.23,2.23,0,0,0-.08-1.48A0.59,0.59,0,0,1,83,12.4c0-.09-0.11-0.19-0.21-0.11a2,2,0,0,0-.18.88,6,6,0,0,0,.63,1.25Z" transform="translate(-1.89 -1.37)" fill="#231f20"/><path d="M84.74,12.4a0.33,0.33,0,0,0-.17.37,0.27,0.27,0,0,0,.35.18,0.39,0.39,0,0,0,.23-0.37A0.33,0.33,0,0,0,84.74,12.4Z" transform="translate(-1.89 -1.37)" fill="#231f20"/><path d="M47.59,13.35a0.33,0.33,0,0,0,.23-0.29,0.48,0.48,0,0,0-.31-0.29,0.34,0.34,0,0,0-.25.12,0.36,0.36,0,0,0,0,.35C47.38,13.29,47.47,13.45,47.59,13.35Z" transform="translate(-1.89 -1.37)" fill="#231f20"/><path d="M48.33,13.29A0.31,0.31,0,0,0,48.49,13a0.3,0.3,0,0,0-.35-0.21,0.34,0.34,0,0,0-.17.34A0.3,0.3,0,0,0,48.33,13.29Z" transform="translate(-1.89 -1.37)" fill="#231f20"/><path d="M85.23,13.54c0-.2.34-0.4,0.35-0.6a2.26,2.26,0,0,0-1.24.8,1.62,1.62,0,0,0-.41.86,0.74,0.74,0,0,0,.35-0.2A1.54,1.54,0,0,0,85.23,13.54Z" transform="translate(-1.89 -1.37)" fill="#231f20"/><path d="M48,14.46a0.13,0.13,0,0,0,.11-0.15,5.47,5.47,0,0,1-.63-0.72,3.22,3.22,0,0,0-.75-0.53c-0.11,0-.31-0.12-0.35,0A2.5,2.5,0,0,0,48,14.46Z" transform="translate(-1.89 -1.37)" fill="#231f20"/><path d="M84.33,15.58a0.6,0.6,0,0,0,.52-0.12,2,2,0,0,0,.95-1.66H85.67A7.72,7.72,0,0,0,84.33,15.58Z" transform="translate(-1.89 -1.37)" fill="#231f20"/><path d="M82.6,14.69a0.38,0.38,0,0,0,.26-0.45,0.61,0.61,0,0,0-.22-0.19,0.25,0.25,0,0,0-.18,0,0.32,0.32,0,0,0-.21.34A0.4,0.4,0,0,0,82.6,14.69Z" transform="translate(-1.89 -1.37)" fill="#231f20"/><path d="M47.5,15.11a8.45,8.45,0,0,0-.83-0.72,2.77,2.77,0,0,0-.93-0.2c-0.11,0-.31,0-0.32.15,0.53,0.15.89,0.6,1.41,0.78A1.13,1.13,0,0,0,47.5,15.11Z" transform="translate(-1.89 -1.37)" fill="#231f20"/><path d="M50.85,15a0.34,0.34,0,0,0,.23-0.35,0.33,0.33,0,0,0-.31-0.18,0.31,0.31,0,0,0-.21.35A0.45,0.45,0,0,0,50.85,15Z" transform="translate(-1.89 -1.37)" fill="#231f20"/><path d="M49.78,15.06a0.25,0.25,0,0,0,.37,0,0.34,0.34,0,0,0-.06-0.35,0.3,0.3,0,0,0-.41.08A0.26,0.26,0,0,0,49.78,15.06Z" transform="translate(-1.89 -1.37)" fill="#231f20"/><path d="M82.69,14.94a0.29,0.29,0,0,0-.23.23,0.35,0.35,0,0,0,.35.28,0.3,0.3,0,0,0,.2-0.36A0.29,0.29,0,0,0,82.69,14.94Z" transform="translate(-1.89 -1.37)" fill="#231f20"/><path d="M83.7,15.46a0.53,0.53,0,0,1,.15-0.12c0.12-.08,0-0.2,0-0.28A0.29,0.29,0,0,0,83.56,15a0.33,0.33,0,0,0-.23.32A0.3,0.3,0,0,0,83.7,15.46Z" transform="translate(-1.89 -1.37)" fill="#231f20"/><path d="M45.71,15.24a0.63,0.63,0,0,0,.12.2,0.3,0.3,0,0,0,.41-0.2A0.37,0.37,0,0,0,45.88,15,0.28,0.28,0,0,0,45.71,15.24Z" transform="translate(-1.89 -1.37)" fill="#231f20"/><path d="M50.8,15.58a0.39,0.39,0,0,0,.34.22,0.49,0.49,0,0,0,.26-0.29A0.34,0.34,0,0,0,51,15.28,0.31,0.31,0,0,0,50.8,15.58Z" transform="translate(-1.89 -1.37)" fill="#231f20"/><path d="M50,15.48a0.29,0.29,0,0,0,.17.29,0.34,0.34,0,0,0,.38-0.13,0.24,0.24,0,0,0,0-.24,0.31,0.31,0,0,0-.27-0.11A0.66,0.66,0,0,0,50,15.48Z" transform="translate(-1.89 -1.37)" fill="#231f20"/><path d="M85.63,15.8a0.3,0.3,0,0,0,.34.08,0.4,0.4,0,0,0,.2-0.29,0.56,0.56,0,0,0-.3-0.22,0.54,0.54,0,0,0-.29.2C85.56,15.64,85.53,15.77,85.63,15.8Z" transform="translate(-1.89 -1.37)" fill="#231f20"/><path d="M86.85,16a0.39,0.39,0,0,0,.29-0.28,0.27,0.27,0,0,0-.38-0.15,0.26,0.26,0,0,0-.14.24C86.59,16,86.76,16,86.85,16Z" transform="translate(-1.89 -1.37)" fill="#231f20"/><path d="M47.7,15.75a0.34,0.34,0,0,0-.26.17,0.27,0.27,0,0,0,.08.31,0.26,0.26,0,0,0,.29.08A0.3,0.3,0,0,0,48,15.94,0.38,0.38,0,0,0,47.7,15.75Z" transform="translate(-1.89 -1.37)" fill="#231f20"/><path d="M48.62,16.34a0.36,0.36,0,0,0,.12-0.26A0.3,0.3,0,0,0,48.22,16a0.28,0.28,0,0,0,.12.37A0.26,0.26,0,0,0,48.62,16.34Z" transform="translate(-1.89 -1.37)" fill="#231f20"/><path d="M84.74,16.17a0.26,0.26,0,0,0,.31.18A0.49,0.49,0,0,0,85.26,16a0.33,0.33,0,0,0-.35-0.12A0.32,0.32,0,0,0,84.74,16.17Z" transform="translate(-1.89 -1.37)" fill="#231f20"/><path d="M85.92,16.25a0.28,0.28,0,0,0,.06.32,0.42,0.42,0,0,0,.37.06,0.46,0.46,0,0,0,.17-0.38c-0.09,0-.12-0.12-0.23-0.19A0.36,0.36,0,0,0,85.92,16.25Z" transform="translate(-1.89 -1.37)" fill="#231f20"/><path d="M47.29,16.79c0-.06.18-0.09,0.12-0.22s-0.34-.37-0.47-0.11a0.26,0.26,0,0,0,0,.29A0.32,0.32,0,0,0,47.29,16.79Z" transform="translate(-1.89 -1.37)" fill="#231f20"/><path d="M83.71,16.6a5,5,0,0,1,.61.34,1.16,1.16,0,0,0,1.24.06s0-.12,0-0.14a10.67,10.67,0,0,1-1.28-.49A0.66,0.66,0,0,0,83.71,16.6Z" transform="translate(-1.89 -1.37)" fill="#231f20"/><path d="M47.69,16.63a0.27,0.27,0,0,0,.11.38,0.21,0.21,0,0,0,.26,0,0.39,0.39,0,0,0,.09-0.26A0.27,0.27,0,0,0,47.69,16.63Z" transform="translate(-1.89 -1.37)" fill="#231f20"/><path d="M49.34,17.15a0.28,0.28,0,0,0,.15-0.34A0.3,0.3,0,0,0,49,16.75c-0.14.12,0,.25,0.08,0.35A0.39,0.39,0,0,0,49.34,17.15Z" transform="translate(-1.89 -1.37)" fill="#231f20"/><path d="M65.2,19.65c0.2,0.54.84,0.28,1.28,0.32a1.39,1.39,0,0,0,.58-0.5A1.25,1.25,0,0,0,67,18.7a2.36,2.36,0,0,1-.31-0.87c-0.07-.41.44-0.06,0.47-0.36C67,17.31,66.8,17,66.54,17.22a0.51,0.51,0,0,0-.17.51c0.06,0.39.23,0.76,0.29,1.13a1.34,1.34,0,0,1-.22-0.19c-0.31-.4-0.87-0.28-1.22-0.64-0.42,0,.28.47-0.22,0.55a2.13,2.13,0,0,0,.1.26,0.65,0.65,0,0,1-.15.07A2.19,2.19,0,0,0,65.2,19.65Z" transform="translate(-1.89 -1.37)" fill="#231f20"/><path d="M50.67,17.69a0.31,0.31,0,0,0,.17-0.32,0.33,0.33,0,0,0-.29-0.15,0.28,0.28,0,0,0-.15.31C50.45,17.6,50.53,17.76,50.67,17.69Z" transform="translate(-1.89 -1.37)" fill="#231f20"/><path d="M60,17.59a2.35,2.35,0,0,0-.06,2c0.17,0,.12-0.19.14-0.31a2.11,2.11,0,0,0,.18-1.72C60.22,17.37,60,17.43,60,17.59Z" transform="translate(-1.89 -1.37)" fill="#231f20"/><path d="M73.38,19.25a1.73,1.73,0,0,0,0-1.43c-0.06-.12,0-0.4-0.26-0.35a3.69,3.69,0,0,1-.19.81,3.63,3.63,0,0,0,.35,1.09Z" transform="translate(-1.89 -1.37)" fill="#231f20"/><path d="M51.51,18.34A1.41,1.41,0,0,0,52,18a0.69,0.69,0,0,0-.14-0.11,1.66,1.66,0,0,0-1.74.72A1.82,1.82,0,0,0,51.51,18.34Z" transform="translate(-1.89 -1.37)" fill="#231f20"/><path d="M46.8,20a4.16,4.16,0,0,0-1.06-1.51c-0.06,0-.15,0-0.15.06a1.69,1.69,0,0,0,.93,1.58,1,1,0,0,0,.41.06C47,20.13,46.84,20.11,46.8,20Z" transform="translate(-1.89 -1.37)" fill="#231f20"/><path d="M72.62,19.37A0.32,0.32,0,0,0,72.75,19a0.27,0.27,0,0,0-.41-0.08,0.29,0.29,0,0,0-.08.25A0.28,0.28,0,0,0,72.62,19.37Z" transform="translate(-1.89 -1.37)" fill="#231f20"/><path d="M84.71,20.91c0,0.08.09,0,.15,0a3.83,3.83,0,0,0,1.87-1.72,0.5,0.5,0,0,0-.41.06C85.5,19.49,85.23,20.36,84.71,20.91Z" transform="translate(-1.89 -1.37)" fill="#231f20"/><path d="M44.84,20.21C45,20.19,44.92,20,45,20a0.39,0.39,0,0,0-.27-0.26,0.27,0.27,0,0,0-.2.34A0.25,0.25,0,0,0,44.84,20.21Z" transform="translate(-1.89 -1.37)" fill="#231f20"/><path d="M47.46,19.93a1.66,1.66,0,0,0,1.76.45c0.08,0,.23,0,0.18-0.17a5,5,0,0,0-1.88-.42A0.12,0.12,0,0,0,47.46,19.93Z" transform="translate(-1.89 -1.37)" fill="#231f20"/><path d="M45.28,20.17a0.48,0.48,0,0,0,.2.2,0.34,0.34,0,0,0,.38-0.14,0.41,0.41,0,0,0,0-.23,0.47,0.47,0,0,0-.29-0.12A0.37,0.37,0,0,0,45.28,20.17Z" transform="translate(-1.89 -1.37)" fill="#231f20"/><path d="M59.76,20a0.22,0.22,0,0,0-.11.29,0.27,0.27,0,0,0,.5-0.17A0.34,0.34,0,0,0,59.76,20Z" transform="translate(-1.89 -1.37)" fill="#231f20"/><path d="M86.74,20.17a0.43,0.43,0,0,0,.08.25,0.33,0.33,0,0,0,.29,0,0.33,0.33,0,0,0,.2-0.32A1.45,1.45,0,0,0,87.09,20,0.33,0.33,0,0,0,86.74,20.17Z" transform="translate(-1.89 -1.37)" fill="#231f20"/><path d="M88,20.53a0.21,0.21,0,0,0,.27-0.09,0.29,0.29,0,0,0,.06-0.35A0.63,0.63,0,0,0,88,20a0.36,0.36,0,0,0-.23.26A0.5,0.5,0,0,0,88,20.53Z" transform="translate(-1.89 -1.37)" fill="#231f20"/><path d="M44,20.85a0.35,0.35,0,0,0,.24-0.06,0.56,0.56,0,0,0,.11-0.26A0.39,0.39,0,0,0,44,20.3a0.4,0.4,0,0,0-.27.31A0.46,0.46,0,0,0,44,20.85Z" transform="translate(-1.89 -1.37)" fill="#231f20"/><path d="M76,20.56a0.32,0.32,0,0,0,.15.32,0.29,0.29,0,0,0,.37-0.15,0.43,0.43,0,0,0,0-.2A0.3,0.3,0,0,0,76,20.56Z" transform="translate(-1.89 -1.37)" fill="#231f20"/><path d="M46.46,20.47a0.28,0.28,0,0,0,.14.52,0.26,0.26,0,0,0,.21-0.23A0.28,0.28,0,0,0,46.46,20.47Z" transform="translate(-1.89 -1.37)" fill="#231f20"/><path d="M44.78,20.91a0.36,0.36,0,0,0,.41.22,0.32,0.32,0,0,0,.15-0.34,0.48,0.48,0,0,0-.29-0.23A0.43,0.43,0,0,0,44.78,20.91Z" transform="translate(-1.89 -1.37)" fill="#231f20"/><path d="M77.39,21.13a0.31,0.31,0,0,0,.17-0.37,0.35,0.35,0,0,0-.31-0.17,0.45,0.45,0,0,0-.27.32A0.38,0.38,0,0,0,77.39,21.13Z" transform="translate(-1.89 -1.37)" fill="#231f20"/><path d="M45.77,21.11A0.46,0.46,0,0,0,46,21.05a0.25,0.25,0,0,0,.08-0.23,0.28,0.28,0,0,0-.29-0.22,0.3,0.3,0,0,0-.2.29A0.52,0.52,0,0,0,45.77,21.11Z" transform="translate(-1.89 -1.37)" fill="#231f20"/><path d="M86.21,21.19a0.45,0.45,0,0,0,.26-0.25,0.31,0.31,0,0,0-.56-0.15,0.26,0.26,0,0,0,0,.28A0.41,0.41,0,0,0,86.21,21.19Z" transform="translate(-1.89 -1.37)" fill="#231f20"/><path d="M87.08,20.91c-0.11.19,0,.29,0.18,0.35A0.4,0.4,0,0,0,87.63,21a0.3,0.3,0,0,0-.37-0.23A0.32,0.32,0,0,0,87.08,20.91Z" transform="translate(-1.89 -1.37)" fill="#231f20"/><path d="M79.85,21.34a0.74,0.74,0,0,0,.29.12c0.12-.09.3-0.16,0.23-0.35a0.38,0.38,0,0,0-.3-0.17A0.36,0.36,0,0,0,79.85,21.34Z" transform="translate(-1.89 -1.37)" fill="#231f20"/><path d="M75.69,21.31a0.27,0.27,0,0,0,.15.29,0.32,0.32,0,0,0,.35-0.12s0-.15,0-0.18A0.29,0.29,0,0,0,75.69,21.31Z" transform="translate(-1.89 -1.37)" fill="#231f20"/><path d="M76.54,21.37a0.25,0.25,0,0,0,0,.23c0.11,0,.23.16,0.34,0A0.21,0.21,0,0,0,77,21.4a0.32,0.32,0,0,0-.28-0.15A0.34,0.34,0,0,0,76.54,21.37Z" transform="translate(-1.89 -1.37)" fill="#231f20"/><path d="M51,21.71a0.3,0.3,0,0,0,0-.29,0.55,0.55,0,0,0-.31-0.15,0.51,0.51,0,0,0-.21.14,0.31,0.31,0,0,0,.11.38A0.3,0.3,0,0,0,51,21.71Z" transform="translate(-1.89 -1.37)" fill="#231f20"/><path d="M81.77,21.73A0.24,0.24,0,0,0,82,21.48a0.38,0.38,0,0,0-.46-0.18,0.64,0.64,0,0,0-.12.23A0.29,0.29,0,0,0,81.77,21.73Z" transform="translate(-1.89 -1.37)" fill="#231f20"/><path d="M80.59,21.5a0.24,0.24,0,0,0,.08.23,0.31,0.31,0,0,0,.34.06,0.31,0.31,0,0,0,.17-0.31,0.4,0.4,0,0,0-.34-0.18A0.71,0.71,0,0,0,80.59,21.5Z" transform="translate(-1.89 -1.37)" fill="#231f20"/><path d="M88.07,21.67l0,0c-0.66,0-1.33-.54-2-0.13-0.12.08-.35,0-0.4,0.2a2.46,2.46,0,0,0,2.08.14C87.83,21.77,88.1,21.88,88.07,21.67Z" transform="translate(-1.89 -1.37)" fill="#231f20"/><path d="M44.2,21.94a2.49,2.49,0,0,0,2-.35l0.06-.11,0,0a2.76,2.76,0,0,0-2,.42Z" transform="translate(-1.89 -1.37)" fill="#231f20"/><path d="M83.56,21.59a0.35,0.35,0,0,0-.35-0.17,0.26,0.26,0,0,0-.2.29,0.3,0.3,0,0,0,.4.17A0.35,0.35,0,0,0,83.56,21.59Z" transform="translate(-1.89 -1.37)" fill="#231f20"/><path d="M48.78,22A0.42,0.42,0,0,0,49,21.65a0.32,0.32,0,0,0-.41-0.18,0.27,0.27,0,0,0-.15.29A0.33,0.33,0,0,0,48.78,22Z" transform="translate(-1.89 -1.37)" fill="#231f20"/><path d="M47.5,22a0.27,0.27,0,0,0,.38-0.29,0.35,0.35,0,0,0-.31-0.25,0.87,0.87,0,0,0-.24.17A0.35,0.35,0,0,0,47.5,22Z" transform="translate(-1.89 -1.37)" fill="#231f20"/><path d="M84.63,22.08a0.33,0.33,0,0,0-.28-0.25,0.55,0.55,0,0,0-.2.08,0.24,0.24,0,0,0-.06.29,0.35,0.35,0,0,0,.29.15A0.33,0.33,0,0,0,84.63,22.08Z" transform="translate(-1.89 -1.37)" fill="#231f20"/><path d="M46.34,22.84a2.21,2.21,0,0,0,.33-0.66,0.37,0.37,0,0,0,.08-0.26l0,0a4,4,0,0,0-1.54,1.3l0.06,0.12A1.82,1.82,0,0,0,46.34,22.84Z" transform="translate(-1.89 -1.37)" fill="#231f20"/><path d="M83.64,22.54c0.1-.08.26-0.11,0.23-0.29a0.31,0.31,0,0,0-.34-0.2,0.3,0.3,0,0,0-.2.31A0.35,0.35,0,0,0,83.64,22.54Z" transform="translate(-1.89 -1.37)" fill="#231f20"/><path d="M48.14,22.11a0.26,0.26,0,0,0-.15.35,0.41,0.41,0,0,0,.34.15,0.41,0.41,0,0,0,.23-0.29,0.07,0.07,0,0,1,0-.08A0.32,0.32,0,0,0,48.14,22.11Z" transform="translate(-1.89 -1.37)" fill="#231f20"/><path d="M87.2,23a0.3,0.3,0,0,0,.2-0.35A0.37,0.37,0,0,0,87,22.48c-0.17,0-.2.22-0.35,0.23a1.41,1.41,0,0,0-1.05-.6c-0.17.12,0.12,0.23,0.18,0.37a1.93,1.93,0,0,0,1.1,1,0.14,0.14,0,0,0,.18,0,0.48,0.48,0,0,0-.21-0.31C86.86,22.91,87.09,23.08,87.2,23Z" transform="translate(-1.89 -1.37)" fill="#231f20"/><path d="M88.13,22.53a0.23,0.23,0,0,0,0-.29,0.42,0.42,0,0,0-.35-0.11,0.5,0.5,0,0,0-.23.2,0.29,0.29,0,0,0,.12.28A0.42,0.42,0,0,0,88.13,22.53Z" transform="translate(-1.89 -1.37)" fill="#231f20"/><path d="M81.41,22.48a2.62,2.62,0,0,0,1.39,1.23,0.16,0.16,0,0,0,.14,0,2.34,2.34,0,0,0-.34-0.62,1.78,1.78,0,0,0-.29-0.4,1.41,1.41,0,0,0-1.06-.43A0.39,0.39,0,0,0,81.41,22.48Z" transform="translate(-1.89 -1.37)" fill="#231f20"/><path d="M47.16,22.67a0.36,0.36,0,0,0,.35.12,0.27,0.27,0,0,0,.14-0.31,0.38,0.38,0,0,0-.27-0.19C47.26,22.36,47.06,22.5,47.16,22.67Z" transform="translate(-1.89 -1.37)" fill="#231f20"/><path d="M84,22.73A0.24,0.24,0,0,0,84,23a0.36,0.36,0,0,0,.35,0,0.35,0.35,0,0,0,.15-0.22C84.4,22.68,84.16,22.51,84,22.73Z" transform="translate(-1.89 -1.37)" fill="#231f20"/><path d="M88.1,23.43a0.36,0.36,0,0,0,.22-0.38,0.87,0.87,0,0,0-.18-0.15,0.38,0.38,0,0,0-.4.11,0.33,0.33,0,0,0,0,.29A0.4,0.4,0,0,0,88.1,23.43Z" transform="translate(-1.89 -1.37)" fill="#231f20"/><path d="M77.74,25.18a2.26,2.26,0,0,0-2.08.42v0.09a3.26,3.26,0,0,0,1.6-.23A1,1,0,0,0,77.74,25.18Z" transform="translate(-1.89 -1.37)" fill="#231f20"/><path d="M55.21,26.1a0.29,0.29,0,0,0,.23-0.26,0.36,0.36,0,0,0-.29-0.23A0.25,0.25,0,1,0,55.21,26.1Z" transform="translate(-1.89 -1.37)" fill="#231f20"/><path d="M76.87,26a0.35,0.35,0,0,0,0,.25,0.45,0.45,0,0,0,.34.11A0.44,0.44,0,0,0,77.48,26,0.33,0.33,0,0,0,76.87,26Z" transform="translate(-1.89 -1.37)" fill="#231f20"/><path d="M80.52,26a2.52,2.52,0,0,0-2.22.55l0.08,0.06h0.83a2.51,2.51,0,0,0,1.32-.54V26Z" transform="translate(-1.89 -1.37)" fill="#231f20"/><path d="M50.85,26.24a0.28,0.28,0,0,0-.12.35,0.29,0.29,0,0,0,.32.14,0.28,0.28,0,0,0,.2-0.29A0.3,0.3,0,0,0,50.85,26.24Z" transform="translate(-1.89 -1.37)" fill="#231f20"/><path d="M51.75,26.39a0.72,0.72,0,0,0-.18.14,0.2,0.2,0,0,0,.09.26,0.26,0.26,0,0,0,.29,0,0.21,0.21,0,0,0,.06-0.2A0.43,0.43,0,0,0,51.75,26.39Z" transform="translate(-1.89 -1.37)" fill="#231f20"/><path d="M45.59,28c0.17,0.09.41,0.32,0.57,0.14a3.63,3.63,0,0,0-1-1.25,2.18,2.18,0,0,1-.32-0.17c-0.11,0-.24-0.17-0.31,0C45.07,27.1,45.06,27.7,45.59,28Z" transform="translate(-1.89 -1.37)" fill="#231f20"/><path d="M90.72,22.17a1.22,1.22,0,0,0-1.15-.63,1.06,1.06,0,0,0-.85.63A0.77,0.77,0,0,0,89,23a0.24,0.24,0,0,0,.3-0.08c0.08-.2-0.14-0.2-0.17-0.35a0.51,0.51,0,0,1,.17-0.54,0.8,0.8,0,0,1,.6-0.08,1.07,1.07,0,0,1,.46.45,1.23,1.23,0,0,1,0,.82,1.36,1.36,0,0,1-.95.77c-1.27.18-15.2,0.12-15.2,0.12-1.63.15-3.5-.31-4.9,0.55a2.44,2.44,0,0,0-1.13,1.65A11.15,11.15,0,0,0,67,27.55l0,0c0.08-.37.24-0.69,0.32-1.06a6.77,6.77,0,0,0,.4-1.06,8.52,8.52,0,0,1,2-2.55,1.85,1.85,0,0,1,1.63-.42,4,4,0,0,0,2.12.31,0.13,0.13,0,0,0,0-.11c-0.22-.2-0.57-0.28-0.81-0.48-0.61-.29-1.19.09-1.83,0,0,0-.06,0,0-0.09a9,9,0,0,1,1.89-1,12.94,12.94,0,0,1,1.67-.66A1.11,1.11,0,0,1,75,20.34a11,11,0,0,1-1.58,2.6c-0.23,0-.36.25-0.59,0.26a0.87,0.87,0,0,1-.52.11c-0.47.2-1.15,0.08-1.47,0.52a0.19,0.19,0,0,0,.12.07c0.93,0,2,.08,3,0a0.37,0.37,0,0,0,.24-0.29A0.69,0.69,0,0,1,74.37,23a10.32,10.32,0,0,1,.43-1c0.32-.63.69-1.25,1-1.88a0.15,0.15,0,0,0,.12,0,8.53,8.53,0,0,1,2.34,0l0.11,0.09a10.92,10.92,0,0,1-.14,2.23c-0.26.89-1.28,0.8-2,1-0.18.12-.54,0.06-0.54,0.37a13.92,13.92,0,0,0,2.87.06,0.59,0.59,0,0,0,.26-0.34A1.34,1.34,0,0,0,79,23,1.89,1.89,0,0,1,79,22.13a0.48,0.48,0,0,0,0-.29c0.12-.45.09-1,0.18-1.42,0.28,0,.4.35,0.69,0.37,0.15-.21-0.17-0.31-0.24-0.45a1.69,1.69,0,0,1,1,.15l-0.15.17a0.25,0.25,0,0,0,.18.35,0.36,0.36,0,0,0,.26-0.08c0.2-.14,0-0.28,0-0.4a14.64,14.64,0,0,1,3.26.92,2.61,2.61,0,0,0,.89.29,3.91,3.91,0,0,0-1.16-.62,3.53,3.53,0,0,1-.83-0.38,1.12,1.12,0,0,1,.2-0.11,2.26,2.26,0,0,0,1.33-.86,0.42,0.42,0,0,0,.18-0.18,0.77,0.77,0,0,0-.55,0c-0.64.12-.92,0.88-1.56,1-0.78-.19-1.57-0.37-2.35-0.57a4.69,4.69,0,0,1-1.15-.25A7.12,7.12,0,0,1,79.31,19a0.58,0.58,0,0,0,.06-0.32,0.77,0.77,0,0,1,.15-0.15l0.32-.15a3.88,3.88,0,0,1,1.22,0,3.21,3.21,0,0,0,.76.17,0.56,0.56,0,0,1,.38-0.08c0.49-.26.17-0.83,0.2-1.28a10.18,10.18,0,0,0,1.16-1.26,0.29,0.29,0,0,0-.17-0.29,0.25,0.25,0,0,0-.3.06c-0.18.14,0,.31,0,0.48a2.57,2.57,0,0,1-.7.6l-0.13,0,0-.1a1.83,1.83,0,0,1-.12-0.31C82,16.31,82,16.11,81.87,16a6.17,6.17,0,0,0-1.19-1.6,6.48,6.48,0,0,0-3.23-2c-1.21-.42-2.43.12-3.51,0.51a0.88,0.88,0,0,1-.6-0.65,3.08,3.08,0,0,1,.29-1.63,6.19,6.19,0,0,1,.41-1A10.89,10.89,0,0,0,74.66,7a1.39,1.39,0,0,0-.82-1.22,0.83,0.83,0,0,0-.84.17,2.25,2.25,0,0,1-1,.89C72,7.07,72.3,6.9,72.4,7a2.11,2.11,0,0,1,1,.17,2.63,2.63,0,0,1-.64,1.59,12,12,0,0,0-1.39,2.4h0v-0.8H64.1A3.61,3.61,0,0,0,63,9.83c-0.86-.34-1.42.55-2.29,0.45a0.58,0.58,0,0,0-.14.24,0.13,0.13,0,0,1-.17,0c0-.37-0.17-0.71-0.22-1.06-0.09-.15,0-0.37-0.12-0.52-0.49-1.34,1.19-.32,1.53-1.11s-0.57-.76-0.83-1.23V6.38a2.43,2.43,0,0,1-.66-0.65,2.24,2.24,0,0,0,0-1.19A0.17,0.17,0,0,0,60,4.38c-0.29.4-.5,0.72-0.78,1.11a8.16,8.16,0,0,0-.9-0.68,1.39,1.39,0,0,0-.7-0.17,0.21,0.21,0,0,0,0,.23,2.21,2.21,0,0,0,.75,1.51l0,0.23a7,7,0,0,0-.27,2,11.29,11.29,0,0,1-3.32,4.66c-0.87,1-1.91,1.94-2,3.29a1.08,1.08,0,0,1-.14.63,5.22,5.22,0,0,1-1.42-.76c-0.7-.49-1.71-0.43-2.17-1.32a1,1,0,0,1,.22-1,1.78,1.78,0,0,0,.17-2,0.21,0.21,0,0,0-.12.08c0,0.91-.76,1.54-0.49,2.54,0.06,0.29.21,0.47,0.29,0.75a2.4,2.4,0,0,1-.35-0.08,3.88,3.88,0,0,0-1-.14c-0.7.32-1.67-.08-2.23,0.57-0.09,0-.21,0-0.18.17,0.33,0,.66.09,1,0.08a1.94,1.94,0,0,0,1.25-.56h0.09a1,1,0,0,1,.61-0.09,6.1,6.1,0,0,1,2.51,1v0.06c-0.31.14-.66,0.23-1,0.4a2.07,2.07,0,0,0-.86,1,1,1,0,0,0,.23,1,0.45,0.45,0,0,0,.17.4c0.49-.52,0-1.17.11-1.77a1.25,1.25,0,0,1,1-.8c0.87-.37,1.5.34,2.2,0.74a10.47,10.47,0,0,1-.08,2.08,1.91,1.91,0,0,1-.72.11A13,13,0,0,0,48.65,21c-0.49.17-1.07,0.15-1.56,0.34a4,4,0,0,0,1.18,0c1.5-.22,2.64-1.37,4.26-1.17l0,0a3.64,3.64,0,0,1-.72,1,0.55,0.55,0,0,0-.21-0.4,0.28,0.28,0,0,0-.35.13,0.2,0.2,0,0,0,0,.23,0.5,0.5,0,0,0,.34.22,1.2,1.2,0,0,1-.29.32c-0.43.72-1.3,0.43-1.8,0.94-0.08.11-.35,0.17-0.23,0.34a2.3,2.3,0,0,0,1.57-.4c0.57-.63,1.16-1.23,1.73-1.83a1.83,1.83,0,0,1-.34,1.4,1.75,1.75,0,0,0-.41-0.23,0.38,0.38,0,0,0-.28.31,0.94,0.94,0,0,0,.23.31,5.39,5.39,0,0,1-1.77.57,29.58,29.58,0,0,1-3.33.25,7.4,7.4,0,0,1-1.65,0,4.21,4.21,0,0,0-1.68.25,0.3,0.3,0,0,0,0,.23c0.7,0.46,1.67.09,2.46,0.23h6a2.71,2.71,0,0,0,1.24-.23,4.47,4.47,0,0,0,1.61-2A3.24,3.24,0,0,0,55,20.84a1.32,1.32,0,0,1,1.14-.94,7.07,7.07,0,0,1-.26,2.34,2.64,2.64,0,0,0-.21,1.49,0.46,0.46,0,0,0,.5.28c1.85,0,3.7-.11,5.66,0a4.57,4.57,0,0,0,1,.15S63,24.13,63,24a0.59,0.59,0,0,0-.37-0.43,0.61,0.61,0,0,0-.21-0.12c-1-.55-2.15-0.26-3.3-0.25a2.44,2.44,0,0,1-1.7-.17,2,2,0,0,1-.06-1.15,11.23,11.23,0,0,1,.48-1.68,10.84,10.84,0,0,1,1.61.83,11.39,11.39,0,0,1,5.92,6,0.8,0.8,0,0,1,.06.52,8.27,8.27,0,0,0-1.16-1.17,2.25,2.25,0,0,0-1.16-1.71,1.83,1.83,0,0,0-1.1-.48l-5.56,0c-4.52-.06-8.65.14-13.15,0.06a1.65,1.65,0,0,1-1.57-.94,1,1,0,0,1,0-.85,0.93,0.93,0,0,1,.78-0.42,0.81,0.81,0,0,1,.52.43,1.49,1.49,0,0,1-.24.55c0,0.06.08,0.18,0.18,0.14a0.72,0.72,0,0,0,.4-0.49,0.34,0.34,0,0,0,0-.34,1,1,0,0,0-.72-0.63,1.2,1.2,0,0,0-1.28,1.65,2.06,2.06,0,0,0,1.65,1.23l14.87,0.06a32.48,32.48,0,0,1,4.56.12A1.76,1.76,0,0,1,63.61,26a0.12,0.12,0,0,1-.11,0,6.6,6.6,0,0,0-4.34-.89,5.24,5.24,0,0,0-1.71.35,0.87,0.87,0,0,1-.75-0.25,2.54,2.54,0,0,0-2.22-.28,0.12,0.12,0,0,0,0,.11c0.75-.06,1.19.58,1.86,0.66a0.62,0.62,0,0,1,.41,0,14.13,14.13,0,0,1-2.12,1,1.61,1.61,0,0,1-.54-0.39A1.73,1.73,0,0,0,52.9,26a1.33,1.33,0,0,0-.35,0,1.31,1.31,0,0,0,.66.51,7.1,7.1,0,0,1,1.18.21,1.55,1.55,0,0,1-.32.22c-0.72.28-1.32,0.92-2.11,0.88a2.73,2.73,0,0,1-2.26-.74,1.53,1.53,0,0,0-1.54-.89s-0.11,0-.09.11c0.34,0.2.6,0.6,0.93,0.83s0.63,0,.83.29a2.69,2.69,0,0,0,1,.43,4.35,4.35,0,0,0,.79.22l-0.11.06a13.08,13.08,0,0,1-4.55.45c-0.46,0-.9-0.16-1.36-0.14a0.87,0.87,0,0,0,.37.21,1,1,0,0,1-.41.12,2.61,2.61,0,0,0-.58.15,1.5,1.5,0,0,0-.66.15,3.15,3.15,0,0,1-.87.71c0,0.06,0,.15.06,0.15,0.29-.12.66,0,0.95-0.15A3.38,3.38,0,0,0,45.62,29a2,2,0,0,1,1.56-.18c0.31,0.08,0,.2.06,0.4a0.43,0.43,0,0,0,.4.18,0.27,0.27,0,0,1,.11-0.08,0.36,0.36,0,0,0,0-.39,3.87,3.87,0,0,1,.73-0.08c0.58,0,1.16-.14,1.73-0.15a0.28,0.28,0,0,1,.29,0c0,0.12-.2.14-0.14,0.31a0.38,0.38,0,0,0,.31.23,0.3,0.3,0,0,0,.23-0.37,0.36,0.36,0,0,0-.23-0.17c0.32-.15.69-0.2,1-0.35a2.8,2.8,0,0,0,.64-0.22A1.22,1.22,0,0,1,52.88,28a3.15,3.15,0,0,1-.32.74,3.7,3.7,0,0,0,0,2.68,0.09,0.09,0,0,0,.09,0,3.68,3.68,0,0,1,.14-2.52c0.21-1.31,1.56-1.69,2.52-2.19l0,0.06a4.8,4.8,0,0,0-.58,2.14,1.49,1.49,0,0,0,0,.37,1.6,1.6,0,0,0,.57-0.71c0.11-.69-0.29-1.55.41-2.06a10.77,10.77,0,0,1,3.88-1.15s0.15,0,.17.06a3.67,3.67,0,0,0-.89,1.08,3.47,3.47,0,0,0-.26,2.66,1.45,1.45,0,0,1-.47,1.11c-0.09.13-.12,0.36-0.21,0.51l0.3,0a1.64,1.64,0,0,0,.52-1,0.42,0.42,0,0,0,.29.31A0.66,0.66,0,0,0,59,29.58c0.24-.14.35,0.17,0.55,0.23a3.88,3.88,0,0,0,.93.22l0.11-.11A1.9,1.9,0,0,0,59,29.27a3.08,3.08,0,0,1-.28-1.76,2.69,2.69,0,0,1,.31-1A2.25,2.25,0,0,1,59.44,26a2.14,2.14,0,0,1,1-.53h0a0.08,0.08,0,0,0,0,0,3.42,3.42,0,0,0-.7,1.17A1.29,1.29,0,0,0,59.62,28a1.24,1.24,0,0,0,.26.65,3.55,3.55,0,0,0,.32-0.94,2.23,2.23,0,0,1-.06-1.48A1.26,1.26,0,0,1,61,25.56a4.72,4.72,0,0,1,2.31.68,0.8,0.8,0,0,1,.44.42,1.25,1.25,0,0,1-2,1,1.06,1.06,0,0,1-.24-0.94,0.63,0.63,0,0,1,.67-0.25,0.52,0.52,0,0,0,.49.14,0.2,0.2,0,0,0,.06-0.25A1.36,1.36,0,0,0,62.28,26a1,1,0,0,0-.84.17,1.09,1.09,0,0,0-.35,1.08,1.32,1.32,0,0,0,.95,1,1.77,1.77,0,0,0,1.88-.65,2.12,2.12,0,0,0,.34-0.66,4,4,0,0,1,1.57,2,3.2,3.2,0,0,1,0,.77l0.54,0a0.51,0.51,0,0,1,0-.37A4.68,4.68,0,0,1,68,26.9c0.26-.15.2,0.2,0.26,0.31a2.07,2.07,0,0,0,1.33,1.17,1.67,1.67,0,0,0,1.65-.54,1.15,1.15,0,0,0,.11-1.29,1.06,1.06,0,0,0-.84-0.4,1,1,0,0,0-.84.57,0.34,0.34,0,0,0,.09.32A0.23,0.23,0,0,0,70,27a0.72,0.72,0,0,1,.41-0.46,0.48,0.48,0,0,1,.49.09,0.8,0.8,0,0,1,.21.6,0.93,0.93,0,0,1-.5.72,1.55,1.55,0,0,1-1.47-.14,3.4,3.4,0,0,1-.43-0.68,1.12,1.12,0,0,1,0-.71,5.16,5.16,0,0,1,2.19-.77,1.57,1.57,0,0,1,.81.51c0.7,0.72-.15,1.76.34,2.56a0.57,0.57,0,0,0,.26-0.43,2.72,2.72,0,0,0-.2-1.69,3.2,3.2,0,0,0-.58-0.91,0.41,0.41,0,0,1,.19,0,3.73,3.73,0,0,1,.93.8,4.12,4.12,0,0,1,.59,2.53,1.52,1.52,0,0,1-1,.85,1.44,1.44,0,0,0-.41.49,0.75,0.75,0,0,0,.63-0.08,2.61,2.61,0,0,0,.66-0.65,0.17,0.17,0,0,1,0,.09c0,0.17-.07.4,0.08,0.45a5.53,5.53,0,0,0,.14-0.79,1.53,1.53,0,0,1,.29.77,1.1,1.1,0,0,0,.73.69,0.47,0.47,0,0,0,0-.4,1.83,1.83,0,0,0-.58-0.86c-0.54-.74-0.29-1.89-0.7-2.72a3.18,3.18,0,0,0-.82-1.14l0.06-.06a9.19,9.19,0,0,1,2.06.37c0.84,0.41,2.06.32,2.46,1.42A4,4,0,0,0,77.68,29l0,0a0.62,0.62,0,0,0,0-.57c-0.09-.77-0.76-1-1.12-1.6l0-.06a10,10,0,0,1,1.12.35A3.29,3.29,0,0,1,80,29.92a6,6,0,0,1-.57,2.63c0,0.13-.26.27-0.12,0.37a1.46,1.46,0,0,0,.29-0.46,4.29,4.29,0,0,0,.5-3.1A1,1,0,0,1,80,28.81a0.52,0.52,0,0,0,.26.14,0.7,0.7,0,0,0,.29-0.17,0.29,0.29,0,0,0,0-.28,0.42,0.42,0,0,0-.44-0.11,0.74,0.74,0,0,0-.19.34,3.11,3.11,0,0,0-.55-0.82l0,0c0.69,0.23,1.31.57,2,.75a1,1,0,0,0,.54.17,15.72,15.72,0,0,0,1.88.48,8.69,8.69,0,0,0,1.3.06v0h0a2.88,2.88,0,0,0-.73-0.17,11.59,11.59,0,0,1-3-.75s0.08,0,.12,0A0.4,0.4,0,0,0,81.71,28a0.41,0.41,0,0,0-.35-0.17,0.44,0.44,0,0,0-.23.26,0.38,0.38,0,0,0,.23.29,0.2,0.2,0,0,1-.14,0l-1.39-.63c-0.17,0-.31-0.17-0.47-0.2-0.35-.17-0.7-0.34-1.06-0.48a24.54,24.54,0,0,0-3.1-1.15l-0.66-.18-1.15-.31a5.79,5.79,0,0,0-4.17.36c-0.18-.06-0.29.23-0.38,0a2.15,2.15,0,0,1,2.09-1.15c6.13-.06,11.88-0.11,17.92-0.2a1.93,1.93,0,0,0,1.76-.88A1.54,1.54,0,0,0,90.72,22.17ZM78.38,19.25l0,0.51H76.79a0.11,0.11,0,0,1,0-.09c0.55-.14,1-0.46,1.58-0.6Zm-1.59-.75a2,2,0,0,0,.27-0.42,0.38,0.38,0,0,0-.15-0.32,0.76,0.76,0,0,1,.41-0.11,1.74,1.74,0,0,1,.86,1,10.18,10.18,0,0,1-1.86.69A5.29,5.29,0,0,1,76.79,18.5Zm-5.41-3.64a4.27,4.27,0,0,0,2,2,1.6,1.6,0,0,0,1.76.52c0.35-.11.38,0.38,0.55,0.59a3.54,3.54,0,0,1-.26,1.49,0.58,0.58,0,0,1-.38.35,3.55,3.55,0,0,1-.7.2,15.57,15.57,0,0,0-5.62,3.16,1.74,1.74,0,0,0,.15-0.65,1.29,1.29,0,0,0-.17-0.68,1,1,0,0,1-.11-0.41l1.91-1.21a2,2,0,0,0,.84-1.78v-5Zm-0.33,3.74A1.83,1.83,0,0,1,70.36,20l-4,2.56h0a0.5,0.5,0,0,1-.62,0l-4-2.55A1.83,1.83,0,0,1,61,18.59V16.53a0.08,0.08,0,0,0,.12,0,1.37,1.37,0,0,0,.28-1.25A2,2,0,0,0,61,14.17l0,0V10.63h1.66a1.43,1.43,0,0,0,.37.16l0.11-.16h7.9v8Zm-11-5.85a1.26,1.26,0,0,1,.52-0.88,0.15,0.15,0,0,1,.07.11h0v1.68C60.55,13.35,59.94,13.12,60.1,12.74ZM63,22.91A29,29,0,0,0,58,19.85c0.16-.46.3-0.83,0.34-0.9a2.69,2.69,0,0,0,.09-0.71,3,3,0,0,0,.09-1,7.18,7.18,0,0,1,.47-1.43c0.09-.23.17-0.48,0.26-0.71a2.31,2.31,0,0,1,.3-0.8,2.52,2.52,0,0,1,1.18.8v3.44a2,2,0,0,0,.84,1.78l1.66,1.05A6.34,6.34,0,0,0,63,22.88v0Zm2.35,3.22a11.22,11.22,0,0,0-2-2.82,0.58,0.58,0,0,1-.09-0.41,1.13,1.13,0,0,0,.2-1.17,0.6,0.6,0,0,1-.1-0.25l-0.13-.1,2.34,1.48a0.49,0.49,0,0,0,.71,0l0.8-.51c-0.59.86,0.35,2.12-.38,2.94v0.06a2.55,2.55,0,0,1-.61.74,2,2,0,0,1-.72-0.88,1.37,1.37,0,0,1-.14-1.43,2.77,2.77,0,0,0-.14-1.23L65,22.5a1.78,1.78,0,0,0-.21,1.8,3.61,3.61,0,0,0,.4.89,5,5,0,0,0,.66,1.14c0.06,0.15-.09.19-0.17,0.26C65.51,26.48,65.54,26.24,65.39,26.13Zm1,1.73a1.41,1.41,0,0,0-.17.54l-0.06,0c0-.23-0.18-0.37-0.12-0.62-0.12-.18-0.12-0.42-0.23-0.62s0.12-.35.23-0.52a1.32,1.32,0,0,1,.44.48A2.18,2.18,0,0,1,66.41,27.86Zm-0.09-1.48a5.08,5.08,0,0,0,1.09-2.25c0.11-.08,0-0.28.14-0.37a1.8,1.8,0,0,0,0-.69c0.1-.33-0.45-0.65-0.1-0.86l-0.08,0,1-.62a2.11,2.11,0,0,0-.12,1.29,1,1,0,0,1,.06.85,14.1,14.1,0,0,0-1.64,3A0.53,0.53,0,0,1,66.32,26.38Z" transform="translate(-1.89 -1.37)" fill="#231f20"/><path d="M80.78,27.61s0,0.08,0,.11a0.41,0.41,0,0,0,.2,0,3.21,3.21,0,0,0,2-.65c0-.08-0.06-0.09-0.06-0.14A2.33,2.33,0,0,0,80.78,27.61Z" transform="translate(-1.89 -1.37)" fill="#231f20"/><path d="M80.29,27.55a0.34,0.34,0,0,0,.25-0.41A0.29,0.29,0,0,0,80.06,27a0.27,0.27,0,0,0-.11.26A0.43,0.43,0,0,0,80.29,27.55Z" transform="translate(-1.89 -1.37)" fill="#231f20"/><path d="M50.93,27.33a0.31,0.31,0,0,0,.2.23,0.3,0.3,0,0,0,.35-0.4A0.35,0.35,0,0,0,51.12,27,0.33,0.33,0,0,0,50.93,27.33Z" transform="translate(-1.89 -1.37)" fill="#231f20"/><path d="M48.74,28.27V28.16a3.27,3.27,0,0,0-1.8-1c-0.09,0,0,.09,0,0.14a2.05,2.05,0,0,1,.81.77A1.19,1.19,0,0,0,48.74,28.27Z" transform="translate(-1.89 -1.37)" fill="#231f20"/><path d="M85.11,27.13a2.82,2.82,0,0,0-1.36,1.46c0.09,0.11.19,0,.29,0a3.08,3.08,0,0,0,1.28-1.4A0.49,0.49,0,0,0,85.11,27.13Z" transform="translate(-1.89 -1.37)" fill="#231f20"/><path d="M51.89,27.46a0.31,0.31,0,0,0,.26.17,0.33,0.33,0,0,0,.21-0.29A0.32,0.32,0,0,0,52,27.16,0.26,0.26,0,0,0,51.89,27.46Z" transform="translate(-1.89 -1.37)" fill="#231f20"/><path d="M87,28.13c0.14-.22.08-0.51,0.21-0.71l-0.08-.09a2.2,2.2,0,0,0-1,1.18A0.56,0.56,0,0,0,86,29,1.87,1.87,0,0,0,87,28.13Z" transform="translate(-1.89 -1.37)" fill="#231f20"/><path d="M43.53,27.59a0.29,0.29,0,0,0,.12.37A0.37,0.37,0,0,0,44,27.9a0.3,0.3,0,0,0,0-.34A0.29,0.29,0,0,0,43.53,27.59Z" transform="translate(-1.89 -1.37)" fill="#231f20"/><path d="M43.17,28a0.51,0.51,0,0,0,0-.22,0.31,0.31,0,0,0-.37-0.12,0.3,0.3,0,0,0-.15.32,0.32,0.32,0,0,0,.35.2A0.36,0.36,0,0,0,43.17,28Z" transform="translate(-1.89 -1.37)" fill="#231f20"/><path d="M44.35,28a0.39,0.39,0,0,0,.46.19c0.18,0,.15-0.24.12-0.37a0.43,0.43,0,0,0-.4-0.12A0.35,0.35,0,0,0,44.35,28Z" transform="translate(-1.89 -1.37)" fill="#231f20"/><path d="M47.15,27.92a0.59,0.59,0,0,0-.21.17c-0.09.11,0.08,0.19,0.11,0.28a0.33,0.33,0,0,0,.29,0c0.12,0,.09-0.18.11-0.29A0.42,0.42,0,0,0,47.15,27.92Z" transform="translate(-1.89 -1.37)" fill="#231f20"/><path d="M88.33,27.92a0.24,0.24,0,0,0-.2.31,0.4,0.4,0,0,0,.35.17,0.31,0.31,0,0,0,.23-0.25A0.36,0.36,0,0,0,88.33,27.92Z" transform="translate(-1.89 -1.37)" fill="#231f20"/><path d="M85.52,28a0.39,0.39,0,0,0-.26.28,0.37,0.37,0,0,0,.47.23,0.33,0.33,0,0,0,.18-0.26A0.4,0.4,0,0,0,85.52,28Z" transform="translate(-1.89 -1.37)" fill="#231f20"/><path d="M87.67,28.46a0.32,0.32,0,0,0,.14-0.26,0.31,0.31,0,0,0-.44-0.12c-0.09.09-.2,0.2-0.06,0.33A0.36,0.36,0,0,0,87.67,28.46Z" transform="translate(-1.89 -1.37)" fill="#231f20"/><path d="M43.6,28.46a0.35,0.35,0,0,0-.37-0.16,0.29,0.29,0,0,0-.15.32,0.35,0.35,0,0,0,.34.21A0.32,0.32,0,0,0,43.6,28.46Z" transform="translate(-1.89 -1.37)" fill="#231f20"/><path d="M84.94,29a0.34,0.34,0,0,0,.21-0.4,0.3,0.3,0,0,0-.52,0c-0.12.08,0,.25,0,0.32A0.3,0.3,0,0,0,84.94,29Z" transform="translate(-1.89 -1.37)" fill="#231f20"/><path d="M51.66,29.09c0-.09.23-0.12,0.17-0.29a0.33,0.33,0,0,0-.32-0.2,0.58,0.58,0,0,0-.2.15,0.33,0.33,0,0,0,.12.32A0.21,0.21,0,0,0,51.66,29.09Z" transform="translate(-1.89 -1.37)" fill="#231f20"/><path d="M88.09,28.69a0.8,0.8,0,0,0-.21.17,0.33,0.33,0,0,0,.14.34,0.41,0.41,0,0,0,.35-0.06,0.37,0.37,0,0,0,.08-0.23A0.35,0.35,0,0,0,88.09,28.69Z" transform="translate(-1.89 -1.37)" fill="#231f20"/><path d="M87.09,29.33c0-.09.11,0,0.17-0.06a0.27,0.27,0,0,0,.23-0.32,0.52,0.52,0,0,0-.23-0.22,0.57,0.57,0,0,0-.28.08c-0.26.19,0.17,0.34,0,.56a1.26,1.26,0,0,0-.84.14,3.24,3.24,0,0,0,.41.19,2.06,2.06,0,0,0,1.51.58V30.15A4.06,4.06,0,0,0,87.09,29.33Z" transform="translate(-1.89 -1.37)" fill="#231f20"/><path d="M80.67,28.92a0.4,0.4,0,0,0,.15.35,0.3,0.3,0,0,0,.34-0.06A0.48,0.48,0,0,0,81.24,29,0.32,0.32,0,0,0,80.67,28.92Z" transform="translate(-1.89 -1.37)" fill="#231f20"/><path d="M47.06,29.5a0.27,0.27,0,0,0-.46-0.18,0.57,0.57,0,0,0-.08.25,0.3,0.3,0,0,0,.28.18A0.29,0.29,0,0,0,47.06,29.5Z" transform="translate(-1.89 -1.37)" fill="#231f20"/><path d="M47,30.43a0.84,0.84,0,0,0-.26.45,1.56,1.56,0,0,0,1.22-1,2,2,0,0,0,.31-0.55H48.2A3.17,3.17,0,0,0,47,30.43Z" transform="translate(-1.89 -1.37)" fill="#231f20"/><path d="M80.3,29.38a0.29,0.29,0,0,0,0,.37,0.35,0.35,0,0,0,.32.12,0.4,0.4,0,0,0,.26-0.35A0.38,0.38,0,0,0,80.3,29.38Z" transform="translate(-1.89 -1.37)" fill="#231f20"/><path d="M81.39,29.93a0.24,0.24,0,0,1,.15,0,0.38,0.38,0,0,0,.28-0.34,0.35,0.35,0,0,0-.41-0.18,0.48,0.48,0,0,0-.21.21A0.34,0.34,0,0,0,81.39,29.93Z" transform="translate(-1.89 -1.37)" fill="#231f20"/><path d="M50.67,29.61c-0.11-.09-0.15-0.23-0.34-0.17a0.37,0.37,0,0,0-.18.31,0.3,0.3,0,0,0,.29.19A0.33,0.33,0,0,0,50.67,29.61Z" transform="translate(-1.89 -1.37)" fill="#231f20"/><path d="M51.15,29.75a0.35,0.35,0,0,0,.28.19,0.36,0.36,0,0,0,.29-0.26,0.32,0.32,0,0,0-.35-0.23A0.35,0.35,0,0,0,51.15,29.75Z" transform="translate(-1.89 -1.37)" fill="#231f20"/><path d="M85.11,30.75a3,3,0,0,0-.87-1.12c-0.12,0-.28-0.22-0.41-0.08a3.18,3.18,0,0,0,.8,1.23,1.13,1.13,0,0,0,.67.22A0.3,0.3,0,0,0,85.11,30.75Z" transform="translate(-1.89 -1.37)" fill="#231f20"/><path d="M85.38,29.55a0.44,0.44,0,0,0-.29.2,0.3,0.3,0,0,0,.12.35A0.37,0.37,0,0,0,85.64,30a0.39,0.39,0,0,0,0-.34A0.59,0.59,0,0,0,85.38,29.55Z" transform="translate(-1.89 -1.37)" fill="#231f20"/><path d="M53.13,30.07A0.31,0.31,0,0,0,52.84,30c-0.09.09-.26,0.12-0.18,0.31a0.3,0.3,0,0,0,.37.19A0.34,0.34,0,0,0,53.13,30.07Z" transform="translate(-1.89 -1.37)" fill="#231f20"/><path d="M82.17,32.17a2.23,2.23,0,0,0-.4-1.09l-0.43-.46c-0.15,0-.26-0.32-0.41-0.18a0.13,0.13,0,0,0,.06.15,3.45,3.45,0,0,0,1.1,1.88h0.06A0.6,0.6,0,0,0,82.17,32.17Z" transform="translate(-1.89 -1.37)" fill="#231f20"/><path d="M55.13,30.58s0,0,0,0l-0.73-.12a3.14,3.14,0,0,0-1.34.29,0.12,0.12,0,0,0-.08.14A2,2,0,0,0,55.13,30.58Z" transform="translate(-1.89 -1.37)" fill="#231f20"/><path d="M51.63,30.5a2.26,2.26,0,0,0-2,1.36c0.15,0.09.23-.08,0.35-0.12a6.23,6.23,0,0,0,1.64-1.11V30.5Z" transform="translate(-1.89 -1.37)" fill="#231f20"/><path d="M80.55,31.16a0.42,0.42,0,0,0-.23.17,0.29,0.29,0,0,0,.14.31,0.21,0.21,0,0,0,.29,0,0.25,0.25,0,0,0,.12-0.32A0.4,0.4,0,0,0,80.55,31.16Z" transform="translate(-1.89 -1.37)" fill="#231f20"/><path d="M79.05,31.8a0.87,0.87,0,0,0,.55-0.4,0.16,0.16,0,0,0-.2,0,3.36,3.36,0,0,0-1.56.08,0.4,0.4,0,0,0-.24.15A2.35,2.35,0,0,0,79.05,31.8Z" transform="translate(-1.89 -1.37)" fill="#231f20"/><path d="M51.63,31.84a0.29,0.29,0,0,0-.55-0.09,0.27,0.27,0,0,0,.06.28,0.32,0.32,0,0,0,.31.06A0.46,0.46,0,0,0,51.63,31.84Z" transform="translate(-1.89 -1.37)" fill="#231f20"/><path d="M52.32,32.27A0.56,0.56,0,0,0,52.53,32a0.41,0.41,0,0,0-.35-0.26,0.44,0.44,0,0,0-.21.14,0.37,0.37,0,0,0,0,.31A0.34,0.34,0,0,0,52.32,32.27Z" transform="translate(-1.89 -1.37)" fill="#231f20"/><path d="M80.06,32c0,0.11-.2.18-0.11,0.31a0.33,0.33,0,0,0,.18.22,0.26,0.26,0,0,0,.34-0.06,0.4,0.4,0,0,0,.11-0.29A0.33,0.33,0,0,0,80.06,32Z" transform="translate(-1.89 -1.37)" fill="#231f20"/><path d="M80.95,32a0.29,0.29,0,0,0-.18.42,0.23,0.23,0,0,0,.18.12c0.18,0.08.24-.12,0.33-0.2a0.36,0.36,0,0,0,0-.22A0.34,0.34,0,0,0,80.95,32Z" transform="translate(-1.89 -1.37)" fill="#231f20"/><path d="M51.83,33A0.42,0.42,0,0,0,52,32.55a0.37,0.37,0,0,0-.41-0.2,0.41,0.41,0,0,0-.18.45A0.35,0.35,0,0,0,51.83,33Z" transform="translate(-1.89 -1.37)" fill="#231f20"/><path d="M51.57,33.74v0.08a1,1,0,0,0,.74-0.12,1.4,1.4,0,0,0,.55-1.2A16.5,16.5,0,0,0,51.57,33.74Z" transform="translate(-1.89 -1.37)" fill="#231f20"/><path d="M77.84,32.63a0.32,0.32,0,0,0-.2.17,0.24,0.24,0,0,0,.08.31,0.32,0.32,0,0,0,.37,0c0-.08.15-0.15,0.09-0.25A0.42,0.42,0,0,0,77.84,32.63Z" transform="translate(-1.89 -1.37)" fill="#231f20"/><path d="M54.3,33.35a4,4,0,0,0-.58-0.65,0.08,0.08,0,0,0-.11,0,4.83,4.83,0,0,0,.44,1.62,0.79,0.79,0,0,0,.53.41,5.3,5.3,0,0,0-.21-1.21A0.75,0.75,0,0,1,54.3,33.35Z" transform="translate(-1.89 -1.37)" fill="#231f20"/><path d="M78.59,32.78a0.26,0.26,0,0,0-.15.28,0.54,0.54,0,0,0,.29.14A0.38,0.38,0,0,0,78.94,33,0.25,0.25,0,0,0,78.59,32.78Z" transform="translate(-1.89 -1.37)" fill="#231f20"/><path d="M79.88,33H79.79a1.82,1.82,0,0,0,.83,1.46h0.06c0.08,0,.09-0.06.09-0.11A1.92,1.92,0,0,0,79.88,33Z" transform="translate(-1.89 -1.37)" fill="#231f20"/><path d="M79.48,34.14a0.37,0.37,0,0,0,.14-0.29,0.31,0.31,0,0,0-.37-0.21,0.43,0.43,0,0,0-.23.3A0.33,0.33,0,0,0,79.48,34.14Z" transform="translate(-1.89 -1.37)" fill="#231f20"/><path d="M77.39,35.23a0.21,0.21,0,0,0,0,.23,4.57,4.57,0,0,0,1.19-1.29c0-.12.2-0.29,0-0.33A2.14,2.14,0,0,0,77.39,35.23Z" transform="translate(-1.89 -1.37)" fill="#231f20"/><path d="M79.4,34.46a0.32,0.32,0,0,0-.2.28,0.28,0.28,0,0,0,.55-0.11A0.32,0.32,0,0,0,79.4,34.46Z" transform="translate(-1.89 -1.37)" fill="#231f20"/><path d="M63.85,7.44h4.53a0.38,0.38,0,0,0,0-.76H63.85A0.38,0.38,0,0,0,63.85,7.44Zm4.39-.64H68.4c0.32,0,.3.54,0,0.54S67.79,6.8,68.23,6.8Zm-1.86,0h0.44c0.24,0,.66.54,0.21,0.54H66.59C66.35,7.34,65.93,6.8,66.38,6.8Zm-1.86,0H65c0.24,0,.66.54,0.21,0.54H64.73C64.49,7.34,64.08,6.8,64.52,6.8Z" transform="translate(-1.89 -1.37)" fill="#231f20"/><path d="M68.34,14.37L68,15.74l0.87-.33,0.85,0.33-0.26-1.37L70,14.53l-0.23-.74L70,13l-0.68.14,0.34-1.27-0.85.33L68,11.88l0.32,1.27L67.64,13l0.19,0.74-0.19.77Zm0.51-1.18c0.21,0.49.63,0,.63,0.49,0,0.23,0,.5-0.21.5h-0.7c-0.31,0-.3-0.21-0.3-0.52S68.69,13.6,68.84,13.18Z" transform="translate(-1.89 -1.37)" fill="#231f20"/><path d="M68.88,13.77c0.2,0,.47.13,0.47-0.07s-0.27-.18-0.47-0.18-0.47-.1-0.47.18S68.68,13.77,68.88,13.77Z" transform="translate(-1.89 -1.37)" fill="#231f20"/><polygon points="64.36 12.07 64.44 11.94 64.28 11.96 64.2 11.8 64.11 11.96 63.96 11.94 64.03 12.07 63.91 12.19 64.06 12.22 64.06 12.38 64.2 12.28 64.34 12.38 64.34 12.22 64.48 12.19 64.36 12.07" fill="#231f20"/><polygon points="63.39 13.08 63.39 13.25 63.53 13.14 63.66 13.25 63.66 13.08 63.81 13.06 63.69 12.94 63.77 12.81 63.61 12.82 63.53 12.67 63.44 12.82 63.29 12.81 63.36 12.94 63.24 13.06 63.39 13.08" fill="#231f20"/><polygon points="64.5 12.83 64.38 12.95 64.53 12.97 64.53 13.14 64.67 13.03 64.8 13.14 64.8 12.97 64.95 12.95 64.83 12.83 64.91 12.7 64.75 12.71 64.67 12.56 64.58 12.71 64.43 12.7 64.5 12.83" fill="#231f20"/><polygon points="64.88 13.54 64.79 13.54 64.74 13.45 64.69 13.54 64.61 13.54 64.65 13.61 64.58 13.68 64.66 13.69 64.66 13.78 64.74 13.72 64.82 13.78 64.82 13.69 64.9 13.68 64.83 13.61 64.88 13.54" fill="#231f20"/><polygon points="64.25 13.77 63.99 13.8 63.84 13.53 63.69 13.8 63.43 13.77 63.55 13.99 63.36 14.2 63.6 14.24 63.6 14.52 63.84 14.35 64.07 14.52 64.07 14.24 64.32 14.2 64.13 13.99 64.25 13.77" fill="#231f20"/><polygon points="63.17 3.23 63.09 4.66 64.14 3.7 65.2 4.66 65.11 3.23 66.52 3 65.35 2.17 66.05 0.92 64.68 1.32 64.14 0 63.6 1.32 62.24 0.92 62.93 2.17 61.77 3 63.17 3.23" fill="#231f20"/><path d="M59.33,31.74l0.2,0.85a0.48,0.48,0,0,0,.32.41,1.14,1.14,0,0,0,.65,0,1,1,0,0,0,.55-0.33,0.73,0.73,0,0,0,.05-0.53l-0.19-.81c0-.17,0-0.21.19-0.27V31l-0.67.16v0.06c0.26-.05.32,0,0.36,0.18L61,32.18a0.5,0.5,0,0,1-.41.69A0.43,0.43,0,0,1,60,32.47l-0.2-.85c-0.05-.22,0-0.25.24-0.31l0-.06-1,.25v0.06C59.2,31.54,59.28,31.52,59.33,31.74Z" transform="translate(-1.89 -1.37)" fill="#231f20"/><path d="M62,31.89l0.22,0a0.39,0.39,0,0,1,.41.24,0.32,0.32,0,0,1-.32.37,0.65,0.65,0,0,1-.75-0.41l-0.09,0,0.14,0.63,0.09,0a0.1,0.1,0,0,1,.07-0.11,2.36,2.36,0,0,0,.54,0,0.65,0.65,0,0,0,.64-0.7,0.54,0.54,0,0,0-.44-0.39L62,31.44c-0.28-.05-0.35-0.1-0.38-0.23a0.29,0.29,0,0,1,.27-0.32,0.65,0.65,0,0,1,.7.34l0.09,0-0.12-.55-0.09,0a0.1,0.1,0,0,1-.08.11,2.73,2.73,0,0,0-.49,0,0.56,0.56,0,0,0-.56.65C61.39,31.58,61.44,31.8,62,31.89Z" transform="translate(-1.89 -1.37)" fill="#231f20"/><path d="M63.12,31.14a0.52,0.52,0,0,1,.56-0.5L63.81,32c0,0.22-.05.23-0.28,0.27v0.06l1.11-.11V32.18c-0.23,0-.31,0-0.33-0.21l-0.13-1.37a0.51,0.51,0,0,1,.64.38h0.09l-0.05-.52L63,30.62l0,0.52h0.09Z" transform="translate(-1.89 -1.37)" fill="#231f20"/><path d="M66.14,32.16c-0.21,0-.27,0-0.27-0.25V31.4H66l0.63,0.83h0.58l0.63,0.08V32.25c-0.1,0-.25,0-0.24-0.14a1.56,1.56,0,0,1,.18-0.32l0.7,0.09a1.28,1.28,0,0,1,.1.36c0,0.09-.07.08-0.26,0.07v0.06l1,0.12V32.44c-0.15,0-.19-0.11-0.29-0.4l-0.52-1.45H68.39l-0.86,1.34a0.39,0.39,0,0,1-.33.26,0.13,0.13,0,0,1-.09,0l-0.61-.76a0.52,0.52,0,0,0,.5-0.44c0-.44-0.65-0.47-0.87-0.48l-1,0V30.5c0.18,0,.27,0,0.27.25l0,1.16c0,0.21-.06.22-0.28,0.24V32.2l1.05,0V32.16Zm2-1.05,0.23,0.67-0.6-.07Zm-2.28-.46c0-.08,0-0.11.19-0.11a0.33,0.33,0,0,1,.37.38c0,0.34-.17.4-0.58,0.39V30.65Z" transform="translate(-1.89 -1.37)" fill="#231f20"/><path d="M71.33,32.31l-0.09,0a0.77,0.77,0,0,1-.87.36c-0.21,0-.27-0.07-0.25-0.19l0.22-1.22c0-.23.14-0.21,0.35-0.18V31l-1.07-.2v0.06c0.13,0,.26.06,0.23,0.23l-0.23,1.25c0,0.16-.12.15-0.3,0.14v0.06l1.77,0.33Z" transform="translate(-1.89 -1.37)" fill="#231f20"/><path d="M71.2,32.91l1.07,0.22V33.07C72.12,33,72,33,72,32.83l0.26-1.24c0-.17.18-0.14,0.33-0.12V31.41l-1.07-.22v0.06c0.14,0,.28.07,0.25,0.24l-0.26,1.24c0,0.16-.15.14-0.32,0.12v0.06Z" transform="translate(-1.89 -1.37)" fill="#231f20"/><path d="M72.34,33.13V33.2L73,33.26V33.2c-0.1,0-.25,0-0.24-0.14a1.51,1.51,0,0,1,.17-0.32l0.7,0.07a1.42,1.42,0,0,1,.11.36c0,0.09-.07.08-0.26,0.08v0.07l1,0.1V33.35c-0.15,0-.19-0.1-0.3-0.4l-0.55-1.44H73.51l-0.83,1.36A0.38,0.38,0,0,1,72.34,33.13Zm1-1.09,0.25,0.67L73,32.64Z" transform="translate(-1.89 -1.37)" fill="#231f20"/><path d="M65.49,12.82a0.09,0.09,0,0,0,.09.09h0.67a0.08,0.08,0,0,0,.08-0.09v-0.2a0.4,0.4,0,0,0,.13-0.32c0-.63-0.35,0-0.55-0.57-0.14.45-.57,0.07-0.57,0.56a0.38,0.38,0,0,0,.14.35v0.19Zm0.39-.74c0.18,0,.47-0.07.47,0.24s-0.25.09-.43,0.09-0.43.13-.43-0.09S65.7,12.09,65.88,12.09Z" transform="translate(-1.89 -1.37)" fill="#231f20"/><ellipse cx="70.04" cy="18.39" rx="0.29" ry="0.25" fill="#231f20"/><path d="M70.59,11.13A0.15,0.15,0,0,0,70.72,11l-0.14-.27a1.59,1.59,0,0,0-.14.27A0.15,0.15,0,0,0,70.59,11.13Z" transform="translate(-1.89 -1.37)" fill="#231f20"/><path d="M61.21,11a0.14,0.14,0,1,0,.28,0l-0.14-.27A1.59,1.59,0,0,0,61.21,11Z" transform="translate(-1.89 -1.37)" fill="#231f20"/><path d="M63.66,11.13A0.14,0.14,0,0,0,63.8,11l-0.14-.27a1.58,1.58,0,0,0-.14.27A0.15,0.15,0,0,0,63.66,11.13Z" transform="translate(-1.89 -1.37)" fill="#231f20"/><path d="M66,11.13A0.15,0.15,0,0,0,66.11,11L66,10.71a1.6,1.6,0,0,0-.13.27A0.14,0.14,0,0,0,66,11.13Z" transform="translate(-1.89 -1.37)" fill="#231f20"/><path d="M68.28,11.13A0.14,0.14,0,0,0,68.41,11l-0.14-.27a1.59,1.59,0,0,0-.14.27A0.15,0.15,0,0,0,68.28,11.13Z" transform="translate(-1.89 -1.37)" fill="#231f20"/><path d="M61.21,14.14a0.14,0.14,0,1,0,.28,0,1.51,1.51,0,0,0-.14-0.27Z" transform="translate(-1.89 -1.37)" fill="#231f20"/><path d="M61.21,17.22a0.14,0.14,0,1,0,.28,0A1.6,1.6,0,0,0,61.35,17Z" transform="translate(-1.89 -1.37)" fill="#231f20"/><path d="M61.59,19.66a0.14,0.14,0,1,0,.27,0,1.66,1.66,0,0,0-.14-0.27Z" transform="translate(-1.89 -1.37)" fill="#231f20"/><path d="M63.52,21a0.14,0.14,0,1,0,.27,0,1.57,1.57,0,0,0-.13-0.27Z" transform="translate(-1.89 -1.37)" fill="#231f20"/><path d="M70.57,14.14a0.14,0.14,0,0,0,.14.15,0.14,0.14,0,0,0,.14-0.15l-0.14-.27A1.51,1.51,0,0,0,70.57,14.14Z" transform="translate(-1.89 -1.37)" fill="#231f20"/><path d="M70.57,17.22a0.15,0.15,0,0,0,.14.15,0.15,0.15,0,0,0,.14-0.15L70.7,17A1.6,1.6,0,0,0,70.57,17.22Z" transform="translate(-1.89 -1.37)" fill="#231f20"/><path d="M70.2,19.66a0.14,0.14,0,0,0,.14.15,0.15,0.15,0,0,0,.14-0.15l-0.14-.27A1.67,1.67,0,0,0,70.2,19.66Z" transform="translate(-1.89 -1.37)" fill="#231f20"/><path d="M68.26,21a0.14,0.14,0,1,0,.28,0l-0.14-.27A1.56,1.56,0,0,0,68.26,21Z" transform="translate(-1.89 -1.37)" fill="#231f20"/><path d="M65.9,22.33a0.14,0.14,0,1,0,.27,0L66,22.06A1.64,1.64,0,0,0,65.9,22.33Z" transform="translate(-1.89 -1.37)" fill="#231f20"/><path d="M68.18,18.42a1.32,1.32,0,0,1-.44.77,0.25,0.25,0,0,0-.08.24l0.07,0.06c0.19-.1.55-0.13,0.52-0.45a1.15,1.15,0,0,1,.28-0.38,0.3,0.3,0,0,1,.33.16,0.57,0.57,0,0,1-.39.44,0.17,0.17,0,0,0,0,.12,0.28,0.28,0,0,0,.31,0,5.69,5.69,0,0,1,.57-0.54c0,0.15-.29.19-0.09,0.34A0.42,0.42,0,0,0,69.64,19c-0.1-.25.34-0.36,0.07-0.58,0-.22.23-0.31,0.22-0.54s-0.36-.24-0.44-0.45a0.32,0.32,0,0,1,.3,0,0.17,0.17,0,0,0,.19,0l0.09-.25a0.2,0.2,0,0,0-.17-0.1,0.92,0.92,0,0,0-.65.32,0.48,0.48,0,0,0,.23.38c0.09,0,.1.06,0.16,0.1a0.1,0.1,0,0,1-.1.13,2.63,2.63,0,0,1-.61-0.16,0.66,0.66,0,0,0,0-.67s0.09-.09,0-0.13c-0.07-.2-0.29,0-0.42,0a0.56,0.56,0,0,0-.52.26,0.4,0.4,0,0,0,.12.22,0.07,0.07,0,0,1,.1.06l-0.15.09a0.29,0.29,0,0,1,.06.16,0.26,0.26,0,0,1-.25-0.18c0-.12,0-0.32-0.14-0.35l-0.12,0a0.41,0.41,0,0,0-.06.24,1,1,0,0,0,.06.26A2.49,2.49,0,0,1,68.18,18.42Z" transform="translate(-1.89 -1.37)" fill="#231f20"/><ellipse cx="57.29" cy="18.5" rx="0.29" ry="0.25" fill="#231f20"/><ellipse cx="42.32" cy="27.23" rx="0.28" ry="0.27" fill="#231f20"/><path d="M57.31,33.51v0.06l0.63-.07V33.44c-0.1,0-.25,0-0.27-0.08a1.66,1.66,0,0,1,.1-0.35l0.7-.08a1.25,1.25,0,0,1,.18.33c0,0.08,0,.09-0.24.13v0.07l1-.12V33.27c-0.15,0-.21-0.06-0.38-0.32l-0.85-1.29H58.1l-0.52,1.5A0.39,0.39,0,0,1,57.31,33.51ZM58,32.23l0.39,0.6-0.6.07Z" transform="translate(-1.89 -1.37)" fill="#231f20"/><path d="M59,30.67a6.23,6.23,0,0,1-.76.08l-0.5.12a0.38,0.38,0,0,1-.17,0c-0.25-.63.49-1,0.26-1.63a1.12,1.12,0,0,0-1.05-.63,1.28,1.28,0,0,0-1.22.63c-0.35.77,0.09,1.57,0.23,2.32a0.85,0.85,0,0,1,0,.72,2.1,2.1,0,0,0-1.73-.35,1,1,0,0,0-.61.19,4.35,4.35,0,0,0,2.23.28,0.21,0.21,0,0,1,.23,0,3.07,3.07,0,0,0,.17,1.29,1.56,1.56,0,0,0,1.18.51,18,18,0,0,0,3.94-.79c0.2,0,.35-0.12.57-0.12A11.24,11.24,0,0,1,64,33a3.8,3.8,0,0,0-.64,1.39c-0.19.42,0.32,0.48,0.47,0.71a11.44,11.44,0,0,0-1.25.65,17.06,17.06,0,0,0-2.72.45,2.53,2.53,0,0,0,.35.34,0.55,0.55,0,0,1-.29.23c0,0.09,0,.11.09,0.12s0.29,0,.38-0.14c0.3,0,.57-0.09.86-0.11A2.88,2.88,0,0,0,62,36.32c0.32-.09.52-0.31,0.84-0.4s0.87-.15,1.3-0.18v0.09c-0.35.57-.72,1.15-1.08,1.69a0.17,0.17,0,0,0,.11.25,0.79,0.79,0,0,0,.6-0.09c0.32-.55.61-1.08,0.87-1.65a2.24,2.24,0,0,1,.87-1.15c0.06,0,.15-0.12.21,0A7,7,0,0,0,65,35.92a1.3,1.3,0,0,0,.23,1.34,1.2,1.2,0,0,0,.7.12c0.6-.31,1.36.18,1.82-0.4,0.27,0,.32.28,0.47,0.43a0.91,0.91,0,0,0,.8.15,1.43,1.43,0,0,0-.29-0.48c-0.18-.33-0.41-0.59-0.58-0.88a3,3,0,0,1-.25-0.57,4.52,4.52,0,0,0,.83.32,5.13,5.13,0,0,1,.83.25,2.79,2.79,0,0,0,.76.59C70.68,37,71.1,37,71.5,37.17a0.55,0.55,0,0,0,.49,0A0.63,0.63,0,0,0,71.76,37c0-.2.27-0.09,0.38-0.25A0.22,0.22,0,0,0,72,36.64c-0.22-.12-0.76-0.16-0.91-0.24a3.31,3.31,0,0,1-.53-0.17c-0.92,0-1.42-.83-2.15-1.14a2,2,0,0,0,.53-0.51,0.86,0.86,0,0,0,0-.82c-0.14-.48-0.75-0.41-1.1-0.68l0,0a6.49,6.49,0,0,1,1.65.22A36.32,36.32,0,0,0,73.9,34c0.84,0,1.9,0,2.31-.77,0.08-.48.17-1,0.25-1.43a7.14,7.14,0,0,0,.61-2.32,1.6,1.6,0,0,0-1-1,1.35,1.35,0,0,0-1.33.34c-0.55.45-.17,1.19-0.15,1.79a0.24,0.24,0,0,1-.11.28c-2.22-.2-4.28-0.75-6.48-1-0.51-.09-1-0.07-1.49-0.17l-0.62-.07a26,26,0,0,0-5.61.63C59.85,30.5,59.42,30.53,59,30.67Zm1.51,5.87-0.21-.2a1.52,1.52,0,0,1,.5-0.15,2.61,2.61,0,0,1,1.3-.18A3.72,3.72,0,0,1,60.56,36.54Zm9.54-.25a6.79,6.79,0,0,0,1.63.39c0,0.21-.42,0-0.38.31A3.57,3.57,0,0,1,70,36.34,0.14,0.14,0,0,1,70.1,36.29ZM55.76,29.75A1.11,1.11,0,0,1,56.12,29a1.29,1.29,0,0,1,1.21,0,0.6,0.6,0,0,1,.25.29,0.69,0.69,0,0,1-.23.69H57.19a1.7,1.7,0,0,1,.09-0.69A0.38,0.38,0,0,0,57,29a0.89,0.89,0,0,0-.69.16,0.69,0.69,0,0,0-.2.68,2.43,2.43,0,0,1,.08.58l0,0.06A1,1,0,0,1,55.76,29.75Zm1.54,0.58a0.58,0.58,0,0,1-.08.52,1,1,0,0,1-.73-0.28c0-.11,0-0.26,0-0.38A1.84,1.84,0,0,0,57.3,30.33Zm-0.87-.66c0-.12,0-0.31.17-0.34s0.27,0,.29.09a3.11,3.11,0,0,1-.08.54A0.35,0.35,0,0,1,56.43,29.67Zm7.17,4.94a1.67,1.67,0,0,1,.49-1.39,0.89,0.89,0,0,1,.66,0,1.09,1.09,0,0,0-1,.71,1,1,0,0,0,0,.48,3.3,3.3,0,0,0,.76.4,0.2,0.2,0,0,1-.14.19A5.79,5.79,0,0,1,63.6,34.61ZM63,35.68a1.72,1.72,0,0,1,1.16-.34A2.09,2.09,0,0,1,63,35.68Zm1.45,0.16a11.77,11.77,0,0,1-.75,1.44,0.32,0.32,0,0,1-.24.11,1.48,1.48,0,0,1,.3-0.57c0.32-.42.41-0.86,0.78-1.26C64.68,35.65,64.5,35.71,64.5,35.83ZM64,34.34a0.56,0.56,0,0,1,0-.5,0.78,0.78,0,0,1,1.12-.2,1.64,1.64,0,0,1-.38.88A4,4,0,0,1,64,34.34Zm0.87,0.6V35h0V34.94h0.06a0.1,0.1,0,0,0-.06,0h0Zm0.2-.41a2.64,2.64,0,0,1,.24-0.65A1.27,1.27,0,0,1,65.08,34.52Zm0.17-1.25A2.35,2.35,0,0,0,64.73,33a1.24,1.24,0,0,1,.58,0A0.34,0.34,0,0,1,65.25,33.28Zm0.18,0.46h0V33.57h0v0.17Zm0,0.71a0.57,0.57,0,0,1,0-.21c0.08-.08.15,0.06,0.18,0.11A0.23,0.23,0,0,1,65.45,34.44Zm0.23-1a1.71,1.71,0,0,1,.23-0.57,0.92,0.92,0,0,1,.41.06c0,0.31.41,0.72,0,1a0.44,0.44,0,0,1-.49.06A0.43,0.43,0,0,1,65.68,33.49Zm1.12-.43c0-.14.14,0,0.2-0.09l0.47,0C67.22,33,66.91,33.54,66.79,33.06Zm0.76,0.2c-0.19.06-.32,0.28-0.51,0.32A0.62,0.62,0,0,1,67.56,33.26Zm-0.64,1v0h0v0h0Zm0,0.94a0.15,0.15,0,0,1,0,.11L66.56,35A0.37,0.37,0,0,1,66.95,35.15Zm-0.41-.48a0.12,0.12,0,0,1,.14,0H66.53Zm-0.22-.23a0.41,0.41,0,0,1,.24-0.23,0.08,0.08,0,0,0,0,0A0.78,0.78,0,0,1,66.32,34.44Zm-0.35,0H65.91L66,34.32S66,34.38,66,34.41ZM66,35c0.2-.21.38,0.12,0.46,0.3,0.23,0.34.83,0.65,0.6,1.11a6.22,6.22,0,0,1-1.07.22,0.68,0.68,0,0,1-.55-0.14A8.88,8.88,0,0,1,66,35Zm-0.43.3,0.08-.12a6.5,6.5,0,0,1-.5,1.11A1.72,1.72,0,0,1,65.58,35.29Zm0.67,1.83a1.35,1.35,0,0,1-1-.06c0-.12-0.12-0.18-0.11-0.31a1.3,1.3,0,0,0,.69,0,6.64,6.64,0,0,1,1.07,0c0.17,0,.43-0.27.46,0C67.24,37.33,66.62,37,66.26,37.12Zm0.89-2.22v0h0v0h0Zm0.09,1c0,0.16.17,0.22,0.08,0.36A0.48,0.48,0,0,1,67.24,35.87Zm0.43,0.93-0.08,0a0.38,0.38,0,0,1,0-.32A0.25,0.25,0,0,1,67.66,36.8Zm0.77,0.37a0.08,0.08,0,0,1-.12,0,8.16,8.16,0,0,1-1-1.85l0.06,0C67.77,35.92,68.06,36.59,68.43,37.17ZM69,35.75a0.06,0.06,0,0,0,0,.06,1.74,1.74,0,0,1-1.07-.48l0-.08A2.91,2.91,0,0,1,69,35.75Zm-0.4-2a0.39,0.39,0,0,1,.22.4,0.83,0.83,0,0,1-.52.76,0.81,0.81,0,0,1-.6.06,1,1,0,0,0,.92-0.52Zm-0.34-.06a1,1,0,0,1,.14.68,0.89,0.89,0,0,1-.73.35,0.46,0.46,0,0,1-.35-0.11,0.16,0.16,0,0,0-.06-0.15c0-.2-0.35-0.4-0.08-0.57S68,33.09,68.26,33.64Zm6.89-4.77a1.06,1.06,0,0,1,.89,0,0.69,0.69,0,0,1,.5.32,1,1,0,0,1,.12.88,0.87,0.87,0,0,1-.66.52,2.72,2.72,0,0,0,.23-1,0.92,0.92,0,0,0-1-.31,0.56,0.56,0,0,0-.12.39l-0.06.51c-0.3,0-.32-0.28-0.41-0.49A0.89,0.89,0,0,1,75.15,28.87Zm0.27,1.39c0.17-.17,0-1.14.43-0.51a0.47,0.47,0,0,1-.11.4A0.29,0.29,0,0,1,75.43,30.26Zm0.17,0.39c0,0.25-.21.19-0.34,0.28H74.89a0.83,0.83,0,0,1,0-.43A3,3,0,0,1,75.6,30.64Zm-11.79-.49a22.75,22.75,0,0,1,4.1.14c0.43,0,.79.12,1.21,0.15,0.86,0.11,1.65.34,2.52,0.4a3.84,3.84,0,0,0,.46.08c1.38,0.21,2.92.6,4.23,0a11.13,11.13,0,0,1-.31,1.6,2.92,2.92,0,0,1-.17.54,0.63,0.63,0,0,1-.43.52c-1.82.4-3.61-.21-5.36-0.52a18.74,18.74,0,0,0-7.84-.12c-1.18.22-2.32,0.49-3.45,0.82a5,5,0,0,1-2.14,0c-0.55-.26-0.32-1-0.49-1.46A8,8,0,0,0,56,31.21a0.9,0.9,0,0,1-.06-0.4c0.23,0,.46.2,0.7,0.26a9.55,9.55,0,0,0,3.62-.38A26.23,26.23,0,0,1,63.81,30.15Z" transform="translate(-1.89 -1.37)" fill="#231f20"/><path d="M7.42,63.5l-2.2-5H5.14L3,63.36a3.58,3.58,0,0,1-.52.92,0.91,0.91,0,0,1-.54.27v0.17h2V64.56a1.74,1.74,0,0,1-.6-0.11,0.41,0.41,0,0,1-.21-0.38,1.33,1.33,0,0,1,.13-0.49L3.5,63H5.66L6,63.75c0.08,0.2.13,0.31,0.14,0.34a0.56,0.56,0,0,1,0,.17,0.24,0.24,0,0,1-.1.21,0.93,0.93,0,0,1-.5.1H5.42v0.17h3V64.56a0.71,0.71,0,0,1-.43-0.16A3.06,3.06,0,0,1,7.42,63.5Zm-3.76-.85,0.94-2.1,0.91,2.1H3.66Z" transform="translate(-1.89 -1.37)" fill="#231f20"/><path d="M12.48,63.81V60.52H10.77v0.17a0.53,0.53,0,0,1,.37.15,1.2,1.2,0,0,1,.09.59v2.25a1.85,1.85,0,0,1-.43.47,0.52,0.52,0,0,1-.29.09,0.35,0.35,0,0,1-.21-0.07,0.38,0.38,0,0,1-.13-0.2,2.34,2.34,0,0,1,0-.58V60.52H8.39v0.17a0.53,0.53,0,0,1,.37.15,1.2,1.2,0,0,1,.09.59V63.1a3.78,3.78,0,0,0,.09,1,1.06,1.06,0,0,0,.37.51,1,1,0,0,0,.63.22,1.38,1.38,0,0,0,.67-0.16,2.15,2.15,0,0,0,.6-0.52v0.56h1.71V64.56a0.51,0.51,0,0,1-.36-0.15A1.21,1.21,0,0,1,12.48,63.81Z" transform="translate(-1.89 -1.37)" fill="#231f20"/><path d="M15.22,62a4.32,4.32,0,0,1-.81-0.63,0.37,0.37,0,0,1-.09-0.23,0.39,0.39,0,0,1,.13-0.29,0.44,0.44,0,0,1,.32-0.12,1,1,0,0,1,.59.23,2.26,2.26,0,0,1,.57.87h0.15L16,60.4H15.86a0.87,0.87,0,0,1-.16.19,0.23,0.23,0,0,1-.13,0,0.44,0.44,0,0,1-.2-0.07,1.42,1.42,0,0,0-.66-0.17,1.2,1.2,0,0,0-1,.39,1.32,1.32,0,0,0-.33.88,1.27,1.27,0,0,0,.3.81,4.71,4.71,0,0,0,.89.73,3.53,3.53,0,0,1,.6.48,0.56,0.56,0,0,1,.13.37,0.43,0.43,0,0,1-.14.32,0.48,0.48,0,0,1-.35.13,1.07,1.07,0,0,1-.67-0.3,2,2,0,0,1-.56-0.89H13.47l0.07,1.51h0.15a0.3,0.3,0,0,1,.25-0.22l0.19,0a2.42,2.42,0,0,0,.8.19,1.42,1.42,0,0,0,.71-0.18,1.23,1.23,0,0,0,.49-0.52,1.47,1.47,0,0,0,.18-0.69,1.23,1.23,0,0,0-.21-0.7A3.33,3.33,0,0,0,15.22,62Z" transform="translate(-1.89 -1.37)" fill="#231f20"/><path d="M18.61,59H18.46a5.13,5.13,0,0,1-.7,1,5.76,5.76,0,0,1-1,.84V61h0.55v2.27a4.26,4.26,0,0,0,0,.83,1,1,0,0,0,.35.5,1,1,0,0,0,.68.22,1.23,1.23,0,0,0,1.18-.86l-0.13-.1a0.72,0.72,0,0,1-.55.44,0.27,0.27,0,0,1-.16-0.07A0.34,0.34,0,0,1,18.64,64a2,2,0,0,1,0-.47V61h1V60.52h-1V59Z" transform="translate(-1.89 -1.37)" fill="#231f20"/><path d="M23.09,60.39a1.08,1.08,0,0,0-.61.21,3.08,3.08,0,0,0-.73.87v-1H20v0.17a0.7,0.7,0,0,1,.3.08,0.37,0.37,0,0,1,.13.18,1.75,1.75,0,0,1,0,.46v2.33a1.4,1.4,0,0,1-.1.68,0.49,0.49,0,0,1-.37.15v0.16h2.27V64.56a0.94,0.94,0,0,1-.36-0.07,0.36,0.36,0,0,1-.16-0.18,1.06,1.06,0,0,1,0-.33V62.77a3.06,3.06,0,0,1,.14-1,0.93,0.93,0,0,1,.28-0.44,0.38,0.38,0,0,1,.25-0.1,0.19,0.19,0,0,1,.1,0l0.21,0.17a0.61,0.61,0,0,0,.41.15,0.45,0.45,0,0,0,.35-0.17A0.68,0.68,0,0,0,23.65,61a0.61,0.61,0,0,0-.15-0.44A0.54,0.54,0,0,0,23.09,60.39Z" transform="translate(-1.89 -1.37)" fill="#231f20"/><path d="M27.68,64.21a0.16,0.16,0,0,1-.1,0,0.22,0.22,0,0,1-.07-0.11,1.67,1.67,0,0,1,0-.36V62.07a3.56,3.56,0,0,0-.06-0.87A1.19,1.19,0,0,0,27,60.65,1.58,1.58,0,0,0,26,60.39a2.93,2.93,0,0,0-1,.16,1.62,1.62,0,0,0-.72.45,0.93,0.93,0,0,0-.26.62,0.52,0.52,0,0,0,.19.4,0.68,0.68,0,0,0,.47.17A0.6,0.6,0,0,0,25.2,62a0.5,0.5,0,0,0,.16-0.38,0.58,0.58,0,0,0-.17-0.37,0.39,0.39,0,0,1-.13-0.23,0.23,0.23,0,0,1,.12-0.19,0.82,0.82,0,0,1,.48-0.13,0.59,0.59,0,0,1,.32.09,0.49,0.49,0,0,1,.2.22,2.06,2.06,0,0,1,.05.6v0.42a7.81,7.81,0,0,0-1.8,1A1.16,1.16,0,0,0,24,64a0.8,0.8,0,0,0,.24.59,0.82,0.82,0,0,0,.6.24,2.22,2.22,0,0,0,1.38-.68,0.76,0.76,0,0,0,.25.51,0.85,0.85,0,0,0,.56.17,1,1,0,0,0,.55-0.15,1.64,1.64,0,0,0,.47-0.48L27.92,64A0.32,0.32,0,0,1,27.68,64.21Zm-1.45-.43a0.86,0.86,0,0,1-.52.25,0.41,0.41,0,0,1-.31-0.12,0.51,0.51,0,0,1-.15-0.36,0.84,0.84,0,0,1,.18-0.49,2.63,2.63,0,0,1,.81-0.68v1.41Z" transform="translate(-1.89 -1.37)" fill="#231f20"/><path d="M30,63.85V58.62H28.22v0.17a0.55,0.55,0,0,1,.4.14,1,1,0,0,1,.1.56v4.35a1,1,0,0,1-.09.55,0.55,0.55,0,0,1-.41.16v0.16h2.27V64.56a0.56,0.56,0,0,1-.41-0.14A1,1,0,0,1,30,63.85Z" transform="translate(-1.89 -1.37)" fill="#231f20"/><path d="M32.4,59.67a0.66,0.66,0,0,0,.2-0.49,0.69,0.69,0,0,0-.7-0.7,0.67,0.67,0,0,0-.49.2,0.68,0.68,0,0,0-.2.49,0.69,0.69,0,0,0,.69.69A0.68,0.68,0,0,0,32.4,59.67Z" transform="translate(-1.89 -1.37)" fill="#231f20"/><path d="M32.53,63.85V60.52H30.77v0.17a0.56,0.56,0,0,1,.4.14,1,1,0,0,1,.1.57v2.46a1,1,0,0,1-.09.55,0.55,0.55,0,0,1-.41.16v0.16H33V64.56a0.56,0.56,0,0,1-.41-0.14A1,1,0,0,1,32.53,63.85Z" transform="translate(-1.89 -1.37)" fill="#231f20"/><path d="M37.22,64.21a0.16,0.16,0,0,1-.1,0A0.22,0.22,0,0,1,37,64.06a1.73,1.73,0,0,1,0-.36V62.07A3.58,3.58,0,0,0,37,61.2a1.2,1.2,0,0,0-.45-0.55,1.57,1.57,0,0,0-.95-0.25,2.93,2.93,0,0,0-1,.16,1.62,1.62,0,0,0-.72.45,0.93,0.93,0,0,0-.26.62,0.52,0.52,0,0,0,.19.4,0.69,0.69,0,0,0,.47.17A0.6,0.6,0,0,0,34.74,62a0.5,0.5,0,0,0,.16-0.38,0.58,0.58,0,0,0-.17-0.37,0.39,0.39,0,0,1-.13-0.23,0.23,0.23,0,0,1,.12-0.19,0.83,0.83,0,0,1,.48-0.13,0.59,0.59,0,0,1,.32.09,0.48,0.48,0,0,1,.2.22,2.06,2.06,0,0,1,.05.6v0.42a7.81,7.81,0,0,0-1.8,1,1.16,1.16,0,0,0-.41.87,0.8,0.8,0,0,0,.24.59,0.82,0.82,0,0,0,.6.24,2.22,2.22,0,0,0,1.38-.68,0.76,0.76,0,0,0,.25.51,0.85,0.85,0,0,0,.56.17,1,1,0,0,0,.55-0.15,1.63,1.63,0,0,0,.47-0.48L37.46,64A0.32,0.32,0,0,1,37.22,64.21Zm-1.45-.43a0.86,0.86,0,0,1-.52.25,0.41,0.41,0,0,1-.31-0.12,0.51,0.51,0,0,1-.15-0.36A0.83,0.83,0,0,1,35,63.05a2.65,2.65,0,0,1,.81-0.68v1.41Z" transform="translate(-1.89 -1.37)" fill="#231f20"/><path d="M42.15,63.81V62.17a4.36,4.36,0,0,0-.07-1,1.09,1.09,0,0,0-.36-0.56A1,1,0,0,0,41,60.39a1.32,1.32,0,0,0-.64.16,2.48,2.48,0,0,0-.62.51V60.52H38.06v0.17a0.54,0.54,0,0,1,.37.15,1.21,1.21,0,0,1,.09.59v2.37a1.27,1.27,0,0,1-.08.59,0.52,0.52,0,0,1-.38.17v0.16h2.13V64.56a0.45,0.45,0,0,1-.33-0.16,1.26,1.26,0,0,1-.09-0.6V61.55A0.91,0.91,0,0,1,40.5,61a0.34,0.34,0,0,1,.21.07,0.39,0.39,0,0,1,.14.21,3,3,0,0,1,0,.65v1.87a1.29,1.29,0,0,1-.07.56,0.44,0.44,0,0,1-.34.2v0.16H42.6V64.56a0.51,0.51,0,0,1-.37-0.15A1.25,1.25,0,0,1,42.15,63.81Z" transform="translate(-1.89 -1.37)" fill="#231f20"/><path d="M49.78,58.92a4.35,4.35,0,0,0-1.76-.3H45.29v0.17h0.2a0.8,0.8,0,0,1,.41.09,0.46,0.46,0,0,1,.2.2,2,2,0,0,1,0,.59v4a2.14,2.14,0,0,1,0,.57,0.51,0.51,0,0,1-.21.23,0.82,0.82,0,0,1-.41.08h-0.2v0.17H48a4.93,4.93,0,0,0,.86-0.05,4.06,4.06,0,0,0,1.05-.33,2.64,2.64,0,0,0,.76-0.57,2.75,2.75,0,0,0,.54-0.9A3.51,3.51,0,0,0,51,60,2.6,2.6,0,0,0,49.78,58.92Zm-0.51,5a1.36,1.36,0,0,1-1.15.51,0.74,0.74,0,0,1-.35-0.07,0.26,0.26,0,0,1-.12-0.13,1.67,1.67,0,0,1,0-.46V59a2.92,2.92,0,0,1,1.08.14,1.57,1.57,0,0,1,.75.75,4,4,0,0,1,.37,1.88A3.49,3.49,0,0,1,49.27,63.88Z" transform="translate(-1.89 -1.37)" fill="#231f20"/><path d="M53.59,63.85V60.52H51.83v0.17a0.56,0.56,0,0,1,.4.14,1,1,0,0,1,.1.57v2.46a1,1,0,0,1-.09.55,0.55,0.55,0,0,1-.41.16v0.16H54.1V64.56a0.56,0.56,0,0,1-.41-0.14A1,1,0,0,1,53.59,63.85Z" transform="translate(-1.89 -1.37)" fill="#231f20"/><path d="M53.46,59.67a0.66,0.66,0,0,0,.2-0.49,0.69,0.69,0,0,0-.7-0.7,0.67,0.67,0,0,0-.49.2,0.68,0.68,0,0,0-.2.49,0.69,0.69,0,0,0,.69.69A0.68,0.68,0,0,0,53.46,59.67Z" transform="translate(-1.89 -1.37)" fill="#231f20"/><path d="M58.13,64.45a2.83,2.83,0,0,0-1.3-.21H56.05a0.62,0.62,0,0,1-.4-0.1,0.33,0.33,0,0,1-.12-0.27,0.43,0.43,0,0,1,.14-0.32A0.47,0.47,0,0,1,56,63.43l0.54,0a2,2,0,0,0,.76-0.19A1.67,1.67,0,0,0,58,62.75,1.26,1.26,0,0,0,58.23,62a1.24,1.24,0,0,0-.11-0.51,1.55,1.55,0,0,0-.31-0.4h0.81V60.57H57.21a2.34,2.34,0,0,0-.86-0.18,1.87,1.87,0,0,0-1.3.45,1.39,1.39,0,0,0-.5,1.07,1.35,1.35,0,0,0,.27.83,1.84,1.84,0,0,0,.87.58,1.9,1.9,0,0,0-.76.51,1,1,0,0,0-.24.6,0.88,0.88,0,0,0,.59.8,1.26,1.26,0,0,0-.58.28,0.53,0.53,0,0,0-.16.37,0.57,0.57,0,0,0,.2.41,1.45,1.45,0,0,0,.67.31,4.49,4.49,0,0,0,1,.11,3.73,3.73,0,0,0,1.34-.22A1.37,1.37,0,0,0,58.41,66a1.14,1.14,0,0,0,.23-0.69A1,1,0,0,0,58.13,64.45ZM56,60.93a0.52,0.52,0,0,1,.44-0.26,0.46,0.46,0,0,1,.4.22A2.07,2.07,0,0,1,57,62a1.78,1.78,0,0,1-.18,1,0.54,0.54,0,0,1-.45.25A0.51,0.51,0,0,1,56,62.95,1.68,1.68,0,0,1,55.81,62,2.18,2.18,0,0,1,56,60.93Zm1.56,5.3a2.38,2.38,0,0,1-1,.17,1.86,1.86,0,0,1-1-.19,0.52,0.52,0,0,1-.27-0.42,0.42,0.42,0,0,1,.26-0.38,1.54,1.54,0,0,1,.61-0.08,9.68,9.68,0,0,1,1.31,0,0.65,0.65,0,0,1,.37.19,0.27,0.27,0,0,1,.07.19A0.52,0.52,0,0,1,57.55,66.23Z" transform="translate(-1.89 -1.37)" fill="#231f20"/><path d="M60.62,59.67a0.66,0.66,0,0,0,.2-0.49,0.69,0.69,0,0,0-.7-0.7,0.67,0.67,0,0,0-.49.2,0.68,0.68,0,0,0-.2.49,0.69,0.69,0,0,0,.69.69A0.68,0.68,0,0,0,60.62,59.67Z" transform="translate(-1.89 -1.37)" fill="#231f20"/><path d="M60.76,63.85V60.52H59v0.17a0.56,0.56,0,0,1,.4.14,1,1,0,0,1,.1.57v2.46a1,1,0,0,1-.09.55,0.55,0.55,0,0,1-.41.16v0.16h2.27V64.56a0.56,0.56,0,0,1-.41-0.14A1,1,0,0,1,60.76,63.85Z" transform="translate(-1.89 -1.37)" fill="#231f20"/><path d="M63.34,59H63.2a5.13,5.13,0,0,1-.69,1,5.79,5.79,0,0,1-1,.84V61h0.55v2.27a4.23,4.23,0,0,0,0,.83,1,1,0,0,0,.35.5,1,1,0,0,0,.68.22,1.23,1.23,0,0,0,1.18-.86l-0.14-.1a0.71,0.71,0,0,1-.55.44,0.26,0.26,0,0,1-.16-0.07A0.33,0.33,0,0,1,63.38,64a1.93,1.93,0,0,1,0-.47V61h1V60.52h-1V59Z" transform="translate(-1.89 -1.37)" fill="#231f20"/><path d="M68.51,64.21a0.16,0.16,0,0,1-.1,0,0.22,0.22,0,0,1-.07-0.11,1.67,1.67,0,0,1,0-.36V62.07a3.56,3.56,0,0,0-.06-0.87,1.19,1.19,0,0,0-.45-0.55,1.58,1.58,0,0,0-.95-0.25,2.93,2.93,0,0,0-1,.16,1.62,1.62,0,0,0-.72.45,0.93,0.93,0,0,0-.26.62,0.52,0.52,0,0,0,.19.4,0.68,0.68,0,0,0,.47.17A0.6,0.6,0,0,0,66,62a0.5,0.5,0,0,0,.16-0.38A0.58,0.58,0,0,0,66,61.29a0.39,0.39,0,0,1-.13-0.23A0.23,0.23,0,0,1,66,60.87a0.82,0.82,0,0,1,.48-0.13,0.59,0.59,0,0,1,.32.09A0.49,0.49,0,0,1,67,61a2.06,2.06,0,0,1,.05.6v0.42a7.81,7.81,0,0,0-1.8,1,1.16,1.16,0,0,0-.41.87,0.8,0.8,0,0,0,.24.59,0.82,0.82,0,0,0,.6.24,2.22,2.22,0,0,0,1.38-.68,0.76,0.76,0,0,0,.25.51,0.85,0.85,0,0,0,.56.17,1,1,0,0,0,.55-0.15,1.64,1.64,0,0,0,.47-0.48L68.75,64A0.32,0.32,0,0,1,68.51,64.21Zm-1.45-.43a0.86,0.86,0,0,1-.52.25,0.41,0.41,0,0,1-.31-0.12,0.51,0.51,0,0,1-.15-0.36,0.84,0.84,0,0,1,.18-0.49,2.63,2.63,0,0,1,.81-0.68v1.41Z" transform="translate(-1.89 -1.37)" fill="#231f20"/><path d="M71,63.85V58.62H69.23v0.17a0.55,0.55,0,0,1,.4.14,1,1,0,0,1,.1.56v4.35a1,1,0,0,1-.09.55,0.55,0.55,0,0,1-.41.16v0.16H71.5V64.56a0.56,0.56,0,0,1-.41-0.14A1,1,0,0,1,71,63.85Z" transform="translate(-1.89 -1.37)" fill="#231f20"/><path d="M77.71,58.79h0.2a0.82,0.82,0,0,1,.41.09,0.46,0.46,0,0,1,.2.2,2,2,0,0,1,0,.59V61.4H76.42V59.67a1.83,1.83,0,0,1,0-.57,0.43,0.43,0,0,1,.18-0.22,0.84,0.84,0,0,1,.43-0.1h0.2V58.62H74.09v0.17h0.2a0.8,0.8,0,0,1,.41.09,0.46,0.46,0,0,1,.2.2,2,2,0,0,1,0,.59v4a1.88,1.88,0,0,1,0,.57,0.42,0.42,0,0,1-.18.22,0.85,0.85,0,0,1-.43.09h-0.2v0.17h3.19V64.56h-0.2a0.8,0.8,0,0,1-.41-0.09,0.46,0.46,0,0,1-.2-0.2,1.93,1.93,0,0,1-.05-0.58V61.79h2.15v1.89a1.87,1.87,0,0,1,0,.57,0.44,0.44,0,0,1-.18.22,0.83,0.83,0,0,1-.43.09h-0.2v0.17H80.9V64.56H80.7a0.81,0.81,0,0,1-.41-0.09,0.44,0.44,0,0,1-.2-0.2,2,2,0,0,1,0-.58v-4a1.83,1.83,0,0,1,0-.57,0.43,0.43,0,0,1,.18-0.22,0.82,0.82,0,0,1,.43-0.1h0.2V58.62H77.71v0.17Z" transform="translate(-1.89 -1.37)" fill="#231f20"/><path d="M84.06,60.92A1.44,1.44,0,0,0,83,60.39a1.75,1.75,0,0,0-1.33.62,2.39,2.39,0,0,0-.57,1.68,2.54,2.54,0,0,0,.39,1.44,1.6,1.6,0,0,0,1.42.72,1.63,1.63,0,0,0,1-.29,2.54,2.54,0,0,0,.76-1l-0.15-.1a1.9,1.9,0,0,1-.47.54,0.85,0.85,0,0,1-.49.15,0.94,0.94,0,0,1-.75-0.37,2.17,2.17,0,0,1-.45-1.32h2.31A2.39,2.39,0,0,0,84.06,60.92Zm-1.82,1.25V62a2,2,0,0,1,.26-1.1,0.44,0.44,0,0,1,.38-0.23,0.38,0.38,0,0,1,.25.08,0.82,0.82,0,0,1,.25.41,4.16,4.16,0,0,1,.08,1H82.24Z" transform="translate(-1.89 -1.37)" fill="#231f20"/><path d="M88.68,64.21a0.16,0.16,0,0,1-.1,0,0.22,0.22,0,0,1-.07-0.11,1.73,1.73,0,0,1,0-.36V62.07a3.58,3.58,0,0,0-.06-0.87A1.2,1.2,0,0,0,88,60.65,1.57,1.57,0,0,0,87,60.39a2.93,2.93,0,0,0-1,.16,1.62,1.62,0,0,0-.72.45,0.93,0.93,0,0,0-.26.62,0.52,0.52,0,0,0,.19.4,0.69,0.69,0,0,0,.47.17A0.6,0.6,0,0,0,86.19,62a0.5,0.5,0,0,0,.16-0.38,0.58,0.58,0,0,0-.17-0.37,0.39,0.39,0,0,1-.13-0.23,0.23,0.23,0,0,1,.12-0.19,0.83,0.83,0,0,1,.48-0.13,0.59,0.59,0,0,1,.32.09,0.48,0.48,0,0,1,.2.22,2.06,2.06,0,0,1,.05.6v0.42a7.81,7.81,0,0,0-1.8,1A1.16,1.16,0,0,0,85,64a0.8,0.8,0,0,0,.24.59,0.82,0.82,0,0,0,.6.24,2.22,2.22,0,0,0,1.38-.68,0.76,0.76,0,0,0,.25.51,0.85,0.85,0,0,0,.56.17,1,1,0,0,0,.55-0.15,1.63,1.63,0,0,0,.47-0.48L88.92,64A0.32,0.32,0,0,1,88.68,64.21Zm-1.45-.43a0.86,0.86,0,0,1-.52.25,0.41,0.41,0,0,1-.31-0.12,0.51,0.51,0,0,1-.15-0.36,0.83,0.83,0,0,1,.17-0.49,2.65,2.65,0,0,1,.81-0.68v1.41Z" transform="translate(-1.89 -1.37)" fill="#231f20"/><path d="M91.16,63.85V58.62H89.4v0.17a0.55,0.55,0,0,1,.4.14,1,1,0,0,1,.1.56v4.35a1,1,0,0,1-.09.55,0.55,0.55,0,0,1-.41.16v0.16h2.27V64.56a0.56,0.56,0,0,1-.41-0.14A1,1,0,0,1,91.16,63.85Z" transform="translate(-1.89 -1.37)" fill="#231f20"/><path d="M93.74,59H93.6a5.16,5.16,0,0,1-.69,1,5.82,5.82,0,0,1-1,.84V61h0.55v2.27a4.26,4.26,0,0,0,0,.83,1,1,0,0,0,.35.5,1,1,0,0,0,.68.22,1.23,1.23,0,0,0,1.18-.86l-0.14-.1a0.71,0.71,0,0,1-.55.44,0.27,0.27,0,0,1-.16-0.07A0.34,0.34,0,0,1,93.78,64a2,2,0,0,1,0-.47V61h1V60.52h-1V59Z" transform="translate(-1.89 -1.37)" fill="#231f20"/><path d="M99.24,63.81V62.17a3.93,3.93,0,0,0-.09-1,1.07,1.07,0,0,0-.37-0.53,1,1,0,0,0-.68-0.23,1.28,1.28,0,0,0-.6.15,2.57,2.57,0,0,0-.63.51V58.62H95.15v0.17a0.53,0.53,0,0,1,.37.15,1.2,1.2,0,0,1,.09.59v4.27a1.24,1.24,0,0,1-.08.58,0.52,0.52,0,0,1-.38.17v0.16h2.13V64.56a0.44,0.44,0,0,1-.35-0.19,1.4,1.4,0,0,1-.07-0.56V61.56a1.6,1.6,0,0,1,.37-0.43A0.59,0.59,0,0,1,97.58,61a0.35,0.35,0,0,1,.22.07,0.39,0.39,0,0,1,.14.21,3,3,0,0,1,0,.65v1.88a1.22,1.22,0,0,1-.08.57,0.49,0.49,0,0,1-.34.18v0.16h2.13V64.56a0.51,0.51,0,0,1-.36-0.15A1.21,1.21,0,0,1,99.24,63.81Z" transform="translate(-1.89 -1.37)" fill="#231f20"/><path d="M107.35,63.5l-2.2-5h-0.09l-2.18,4.87a3.61,3.61,0,0,1-.52.92,0.91,0.91,0,0,1-.54.27v0.17h2V64.56a1.74,1.74,0,0,1-.6-0.11,0.41,0.41,0,0,1-.21-0.38,1.33,1.33,0,0,1,.13-0.49l0.26-.59h2.15l0.32,0.76c0.08,0.2.13,0.31,0.13,0.34a0.53,0.53,0,0,1,0,.17,0.24,0.24,0,0,1-.1.21,0.92,0.92,0,0,1-.5.1h-0.12v0.17h3V64.56a0.71,0.71,0,0,1-.43-0.16A3,3,0,0,1,107.35,63.5Zm-3.76-.85,0.94-2.1,0.91,2.1h-1.84Z" transform="translate(-1.89 -1.37)" fill="#231f20"/><path d="M112.15,64.45a2.83,2.83,0,0,0-1.3-.21h-0.78a0.62,0.62,0,0,1-.4-0.1,0.33,0.33,0,0,1-.12-0.27,0.43,0.43,0,0,1,.14-0.32,0.47,0.47,0,0,1,.34-0.13l0.54,0a2,2,0,0,0,.76-0.19,1.67,1.67,0,0,0,.68-0.52,1.26,1.26,0,0,0,.25-0.78,1.24,1.24,0,0,0-.11-0.51,1.52,1.52,0,0,0-.31-0.4h0.81V60.57h-1.42a2.34,2.34,0,0,0-.86-0.18,1.87,1.87,0,0,0-1.3.45,1.39,1.39,0,0,0-.5,1.07,1.35,1.35,0,0,0,.27.83,1.85,1.85,0,0,0,.87.58,1.9,1.9,0,0,0-.76.51,0.94,0.94,0,0,0-.24.6,0.88,0.88,0,0,0,.58.8,1.26,1.26,0,0,0-.58.28,0.53,0.53,0,0,0-.16.37,0.57,0.57,0,0,0,.2.41,1.45,1.45,0,0,0,.67.31,4.5,4.5,0,0,0,1,.11,3.74,3.74,0,0,0,1.34-.22,1.37,1.37,0,0,0,.62-0.46,1.13,1.13,0,0,0,.23-0.69A1,1,0,0,0,112.15,64.45ZM110,60.93a0.52,0.52,0,0,1,.44-0.26,0.46,0.46,0,0,1,.4.22,2.07,2.07,0,0,1,.2,1.1,1.77,1.77,0,0,1-.18,1,0.54,0.54,0,0,1-.45.25,0.51,0.51,0,0,1-.42-0.25,1.69,1.69,0,0,1-.18-0.92A2.17,2.17,0,0,1,110,60.93Zm1.56,5.3a2.38,2.38,0,0,1-1,.17,1.86,1.86,0,0,1-1-.19,0.52,0.52,0,0,1-.27-0.42,0.42,0.42,0,0,1,.26-0.38,1.54,1.54,0,0,1,.61-0.08,9.68,9.68,0,0,1,1.31,0,0.65,0.65,0,0,1,.37.19,0.27,0.27,0,0,1,.07.19A0.52,0.52,0,0,1,111.57,66.23Z" transform="translate(-1.89 -1.37)" fill="#231f20"/><path d="M116,60.92a1.45,1.45,0,0,0-1.11-.52,1.76,1.76,0,0,0-1.33.62,2.39,2.39,0,0,0-.57,1.68,2.54,2.54,0,0,0,.39,1.44,1.6,1.6,0,0,0,1.42.72,1.63,1.63,0,0,0,1-.29,2.54,2.54,0,0,0,.76-1l-0.15-.1a1.89,1.89,0,0,1-.47.54,0.85,0.85,0,0,1-.49.15,0.94,0.94,0,0,1-.75-0.37,2.17,2.17,0,0,1-.45-1.32h2.31A2.4,2.4,0,0,0,116,60.92Zm-1.82,1.25V62a2,2,0,0,1,.26-1.1,0.44,0.44,0,0,1,.38-0.23,0.38,0.38,0,0,1,.25.08,0.82,0.82,0,0,1,.25.41,4.16,4.16,0,0,1,.08,1h-1.22Z" transform="translate(-1.89 -1.37)" fill="#231f20"/><path d="M120.94,63.81V62.17a4.36,4.36,0,0,0-.07-1,1.09,1.09,0,0,0-.36-0.56,1,1,0,0,0-.68-0.23,1.32,1.32,0,0,0-.64.16,2.48,2.48,0,0,0-.62.51V60.52h-1.71v0.17a0.53,0.53,0,0,1,.37.15,1.2,1.2,0,0,1,.09.59v2.37a1.25,1.25,0,0,1-.08.59,0.52,0.52,0,0,1-.38.17v0.16H119V64.56a0.45,0.45,0,0,1-.33-0.16,1.26,1.26,0,0,1-.09-0.6V61.55a0.91,0.91,0,0,1,.72-0.55,0.34,0.34,0,0,1,.21.07,0.39,0.39,0,0,1,.14.21,3,3,0,0,1,0,.65v1.87a1.29,1.29,0,0,1-.07.56,0.44,0.44,0,0,1-.34.2v0.16h2.13V64.56a0.51,0.51,0,0,1-.37-0.15A1.25,1.25,0,0,1,120.94,63.81Z" transform="translate(-1.89 -1.37)" fill="#231f20"/><path d="M124.76,64a0.9,0.9,0,0,1-.42.1,0.92,0.92,0,0,1-.59-0.19,1.74,1.74,0,0,1-.52-0.81A3.41,3.41,0,0,1,123,62a1.92,1.92,0,0,1,.23-1.06,0.44,0.44,0,0,1,.37-0.23,0.32,0.32,0,0,1,.24.11,0.69,0.69,0,0,1,.13.4,1,1,0,0,0,.21.63,0.59,0.59,0,0,0,.44.18,0.56,0.56,0,0,0,.41-0.15,0.55,0.55,0,0,0,.16-0.41,1,1,0,0,0-.38-0.73,1.54,1.54,0,0,0-1-.33,1.77,1.77,0,0,0-1.52.79,2.56,2.56,0,0,0-.46,1.51,2.37,2.37,0,0,0,.5,1.52,1.63,1.63,0,0,0,1.34.63,1.77,1.77,0,0,0,.94-0.27,2.09,2.09,0,0,0,.74-0.83l-0.14-.11A1.94,1.94,0,0,1,124.76,64Z" transform="translate(-1.89 -1.37)" fill="#231f20"/><path d="M128.68,60.69a0.62,0.62,0,0,1,.39.11,0.34,0.34,0,0,1,.11.26,3.2,3.2,0,0,1-.27.94l-0.49,1.27-0.72-1.65a2.18,2.18,0,0,1-.23-0.68,0.23,0.23,0,0,1,.09-0.18,0.52,0.52,0,0,1,.31-0.08V60.52h-2.24v0.17a0.76,0.76,0,0,1,.35.22,4,4,0,0,1,.45.87l1.36,3.12-0.13.35a2.8,2.8,0,0,1-.42.86,0.34,0.34,0,0,1-.23.13,0.12,0.12,0,0,1-.1,0,0.45,0.45,0,0,1,0-.22,0.65,0.65,0,0,0-.14-0.45,0.48,0.48,0,0,0-.36-0.14,0.52,0.52,0,0,0-.39.17,0.61,0.61,0,0,0-.16.43,0.67,0.67,0,0,0,.23.51,0.86,0.86,0,0,0,.6.21,1,1,0,0,0,.78-0.38,6.9,6.9,0,0,0,.68-1.44l1.2-3.12a4,4,0,0,1,.44-0.93,0.53,0.53,0,0,1,.34-0.16V60.52h-1.41v0.17Z" transform="translate(-1.89 -1.37)" fill="#231f20"/><path d="M20.28,49.13A1.94,1.94,0,0,1,19.62,49a0.45,0.45,0,0,1-.23-0.42,1.47,1.47,0,0,1,.14-0.54l0.28-.66h2.38l0.36,0.84c0.09,0.22.14,0.34,0.15,0.37a0.62,0.62,0,0,1,0,.18,0.27,0.27,0,0,1-.11.23,1,1,0,0,1-.55.11H21.93v0.19h3.26V49.13A0.79,0.79,0,0,1,24.71,49a3.31,3.31,0,0,1-.57-1l-2.43-5.52h-0.1l-2.41,5.37a4,4,0,0,1-.58,1,1,1,0,0,1-.6.3v0.19h2.24V49.13ZM21,44.71L22,47H20Z" transform="translate(-1.89 -1.37)" fill="#231f20"/><path d="M25.31,45.68v1.84a4.2,4.2,0,0,0,.1,1.13,1.18,1.18,0,0,0,.41.57,1.1,1.1,0,0,0,.7.24,1.56,1.56,0,0,0,.75-0.18,2.49,2.49,0,0,0,.67-0.58v0.62h1.89V49.14a0.59,0.59,0,0,1-.4-0.16,1.34,1.34,0,0,1-.1-0.67V44.67H27.43v0.19a0.58,0.58,0,0,1,.4.17,1.3,1.3,0,0,1,.1.66v2.48a2.1,2.1,0,0,1-.48.52,0.59,0.59,0,0,1-.32.09,0.4,0.4,0,0,1-.24-0.08,0.45,0.45,0,0,1-.15-0.22,2.78,2.78,0,0,1,0-.64V44.67H24.8v0.19a0.59,0.59,0,0,1,.4.17A1.31,1.31,0,0,1,25.31,45.68Z" transform="translate(-1.89 -1.37)" fill="#231f20"/><path d="M31.51,47.64a3.86,3.86,0,0,1,.67.53,0.61,0.61,0,0,1,.15.41,0.48,0.48,0,0,1-.15.36,0.54,0.54,0,0,1-.39.14A1.18,1.18,0,0,1,31,48.75a2.16,2.16,0,0,1-.61-1H30.26l0.08,1.67h0.16a0.33,0.33,0,0,1,.27-0.25L31,49.25a2.72,2.72,0,0,0,.89.21,1.57,1.57,0,0,0,.78-0.2,1.34,1.34,0,0,0,.55-0.57,1.64,1.64,0,0,0,.19-0.76,1.34,1.34,0,0,0-.23-0.77,3.57,3.57,0,0,0-1-.84,4.83,4.83,0,0,1-.89-0.7,0.4,0.4,0,0,1,0-.57,0.48,0.48,0,0,1,.35-0.14,1,1,0,0,1,.65.26,2.51,2.51,0,0,1,.63,1h0.17l-0.08-1.59H32.9a1,1,0,0,1-.17.21,0.28,0.28,0,0,1-.14,0,0.49,0.49,0,0,1-.22-0.08,1.56,1.56,0,0,0-.73-0.19,1.33,1.33,0,0,0-1.07.44,1.45,1.45,0,0,0-.37,1,1.4,1.4,0,0,0,.33.9A5.14,5.14,0,0,0,31.51,47.64Z" transform="translate(-1.89 -1.37)" fill="#231f20"/><path d="M34.14,47.67a4.76,4.76,0,0,0,0,.91,1.12,1.12,0,0,0,.39.55,1.18,1.18,0,0,0,.75.24,1.36,1.36,0,0,0,1.31-1l-0.15-.11a0.79,0.79,0,0,1-.61.49,0.3,0.3,0,0,1-.17-0.07,0.42,0.42,0,0,1-.13-0.19,2.53,2.53,0,0,1,0-.52V45.16h1.1V44.67h-1.1V43H35.37a5.59,5.59,0,0,1-.77,1.09,6.31,6.31,0,0,1-1.06.93v0.18h0.61v2.51Z" transform="translate(-1.89 -1.37)" fill="#231f20"/><path d="M39.51,49.14a1.07,1.07,0,0,1-.4-0.08,0.39,0.39,0,0,1-.17-0.2,1.12,1.12,0,0,1,0-.36V47.15a3.36,3.36,0,0,1,.16-1.06,1,1,0,0,1,.31-0.48,0.41,0.41,0,0,1,.27-0.11,0.22,0.22,0,0,1,.11,0L40,45.72a0.67,0.67,0,0,0,.46.17,0.5,0.5,0,0,0,.39-0.18A0.75,0.75,0,0,0,41,45.19a0.65,0.65,0,0,0-.17-0.48,0.58,0.58,0,0,0-.44-0.18,1.21,1.21,0,0,0-.67.24,3.41,3.41,0,0,0-.81,1V44.67H37v0.19a0.71,0.71,0,0,1,.33.09,0.41,0.41,0,0,1,.14.2,2,2,0,0,1,0,.51v2.57a1.54,1.54,0,0,1-.11.75,0.55,0.55,0,0,1-.41.16v0.18h2.51V49.14Z" transform="translate(-1.89 -1.37)" fill="#231f20"/><path d="M41.55,47.51a1.28,1.28,0,0,0-.46,1,0.89,0.89,0,0,0,.26.66,0.91,0.91,0,0,0,.66.26,2.45,2.45,0,0,0,1.53-.75,0.86,0.86,0,0,0,.27.56,0.94,0.94,0,0,0,.62.18,1.1,1.1,0,0,0,.6-0.17,1.83,1.83,0,0,0,.52-0.53l-0.15-.12a0.36,0.36,0,0,1-.26.19,0.17,0.17,0,0,1-.11,0A0.25,0.25,0,0,1,45,48.59a2,2,0,0,1,0-.4v-1.8a3.93,3.93,0,0,0-.07-1,1.31,1.31,0,0,0-.5-0.61,1.71,1.71,0,0,0-1-.28,3.23,3.23,0,0,0-1.05.17,1.8,1.8,0,0,0-.79.5,1,1,0,0,0-.28.68,0.58,0.58,0,0,0,.21.44,0.77,0.77,0,0,0,.53.19,0.66,0.66,0,0,0,.47-0.17,0.55,0.55,0,0,0,.18-0.42,0.64,0.64,0,0,0-.19-0.41,0.44,0.44,0,0,1-.14-0.26,0.26,0.26,0,0,1,.13-0.21,0.92,0.92,0,0,1,.53-0.14,0.63,0.63,0,0,1,.36.1,0.49,0.49,0,0,1,.21.24,2.16,2.16,0,0,1,.06.66v0.47A8.64,8.64,0,0,0,41.55,47.51Zm2,0.75a0.94,0.94,0,0,1-.58.28,0.44,0.44,0,0,1-.35-0.14,0.56,0.56,0,0,1-.17-0.4,0.94,0.94,0,0,1,.19-0.54,3,3,0,0,1,.89-0.75v1.55Z" transform="translate(-1.89 -1.37)" fill="#231f20"/><path d="M48.14,49.14A0.62,0.62,0,0,1,47.7,49a1.13,1.13,0,0,1-.11-0.63V42.58H45.64v0.18a0.62,0.62,0,0,1,.44.16,1.09,1.09,0,0,1,.11.62v4.81a1.11,1.11,0,0,1-.1.61,0.61,0.61,0,0,1-.46.18v0.18h2.51V49.14Z" transform="translate(-1.89 -1.37)" fill="#231f20"/><path d="M51,49.14A0.62,0.62,0,0,1,50.52,49a1.11,1.11,0,0,1-.11-0.63V44.67H48.46v0.19a0.59,0.59,0,0,1,.44.16,1.08,1.08,0,0,1,.11.63v2.71a1.11,1.11,0,0,1-.1.61,0.61,0.61,0,0,1-.46.18v0.18H51V49.14Z" transform="translate(-1.89 -1.37)" fill="#231f20"/><path d="M49.71,44a0.76,0.76,0,0,0,.55-1.3,0.76,0.76,0,0,0-1.09,0A0.76,0.76,0,0,0,49.71,44Z" transform="translate(-1.89 -1.37)" fill="#231f20"/><path d="M51.68,47.51a1.27,1.27,0,0,0-.46,1,0.89,0.89,0,0,0,.26.66,0.91,0.91,0,0,0,.66.26,2.45,2.45,0,0,0,1.53-.75,0.85,0.85,0,0,0,.27.56,0.94,0.94,0,0,0,.62.18,1.11,1.11,0,0,0,.6-0.17,1.82,1.82,0,0,0,.52-0.53l-0.15-.12a0.36,0.36,0,0,1-.26.19,0.18,0.18,0,0,1-.12,0,0.25,0.25,0,0,1-.07-0.12,2,2,0,0,1,0-.4v-1.8a3.94,3.94,0,0,0-.07-1,1.29,1.29,0,0,0-.5-0.61,1.71,1.71,0,0,0-1-.28,3.23,3.23,0,0,0-1.05.17,1.78,1.78,0,0,0-.79.5,1,1,0,0,0-.28.68,0.58,0.58,0,0,0,.21.44,0.77,0.77,0,0,0,.53.19,0.66,0.66,0,0,0,.47-0.17,0.55,0.55,0,0,0,.18-0.42,0.64,0.64,0,0,0-.19-0.41,0.43,0.43,0,0,1-.14-0.26,0.25,0.25,0,0,1,.13-0.21A0.91,0.91,0,0,1,53,44.91a0.63,0.63,0,0,1,.36.1,0.49,0.49,0,0,1,.21.24,2.1,2.1,0,0,1,.06.66v0.47A8.61,8.61,0,0,0,51.68,47.51Zm2,0.75a1,1,0,0,1-.58.28,0.44,0.44,0,0,1-.35-0.14,0.56,0.56,0,0,1-.16-0.4,0.93,0.93,0,0,1,.19-0.54,2.93,2.93,0,0,1,.9-0.75v1.55Z" transform="translate(-1.89 -1.37)" fill="#231f20"/><path d="M58.15,49.14A0.52,0.52,0,0,1,57.79,49a1.41,1.41,0,0,1-.09-0.66V45.81a1,1,0,0,1,.79-0.61,0.35,0.35,0,0,1,.23.09,0.41,0.41,0,0,1,.15.23,3.42,3.42,0,0,1,0,.72V48.3a1.43,1.43,0,0,1-.08.62,0.5,0.5,0,0,1-.38.22v0.18h2.35V49.14A0.6,0.6,0,0,1,60.4,49a1.41,1.41,0,0,1-.1-0.67V46.49a4.86,4.86,0,0,0-.08-1.09,1.19,1.19,0,0,0-.4-0.62,1.12,1.12,0,0,0-.75-0.26,1.44,1.44,0,0,0-.71.18,2.68,2.68,0,0,0-.68.56v-0.6H55.8v0.19a0.58,0.58,0,0,1,.4.17,1.33,1.33,0,0,1,.1.66V48.3a1.42,1.42,0,0,1-.08.65,0.6,0.6,0,0,1-.42.19v0.18h2.35V49.14Z" transform="translate(-1.89 -1.37)" fill="#231f20"/><path d="M64.45,48.53a4.08,4.08,0,0,0,1.12.68,4.25,4.25,0,0,0,1.6.26,7,7,0,0,0,1.45-.15A6.46,6.46,0,0,0,70,48.89v-1.4A1.39,1.39,0,0,1,70,47a0.5,0.5,0,0,1,.22-0.25,1.46,1.46,0,0,1,.52-0.1V46.49H67.48v0.19h0.17a0.84,0.84,0,0,1,.41.09,0.52,0.52,0,0,1,.23.21,1.55,1.55,0,0,1,.05.51v1.4a4.07,4.07,0,0,1-.53.15,2.5,2.5,0,0,1-.5,0,2.13,2.13,0,0,1-1.21-.34,1.93,1.93,0,0,1-.74-1.07,5.73,5.73,0,0,1-.23-1.7,5.87,5.87,0,0,1,.21-1.56,2.28,2.28,0,0,1,.71-1.18,1.87,1.87,0,0,1,1.26-.43,2.34,2.34,0,0,1,1.46.51,3,3,0,0,1,1,1.48H70V42.43H69.78a0.92,0.92,0,0,1-.22.38,0.38,0.38,0,0,1-.26.1,3,3,0,0,1-.58-0.19A4.71,4.71,0,0,0,68,42.5a4.79,4.79,0,0,0-.9-0.08,3.68,3.68,0,0,0-2.69,1.05A3.46,3.46,0,0,0,63.35,46a3.33,3.33,0,0,0,.35,1.54A3.29,3.29,0,0,0,64.45,48.53Z" transform="translate(-1.89 -1.37)" fill="#231f20"/><path d="M73.2,49.45a2,2,0,0,0,1.68-.81,2.67,2.67,0,0,0,.5-1.65,2.92,2.92,0,0,0-.27-1.26,2,2,0,0,0-.79-0.89,2.15,2.15,0,0,0-1.13-.31,1.91,1.91,0,0,0-1.59.75A2.75,2.75,0,0,0,71,47a2.7,2.7,0,0,0,.57,1.7A1.91,1.91,0,0,0,73.2,49.45Zm-0.67-3.62a1.38,1.38,0,0,1,.24-0.76,0.57,0.57,0,0,1,.44-0.19,0.52,0.52,0,0,1,.34.1,0.89,0.89,0,0,1,.28.46,4.73,4.73,0,0,1,.09,1.16,11.55,11.55,0,0,1-.1,1.91,0.84,0.84,0,0,1-.26.47,0.56,0.56,0,0,1-.37.12,0.55,0.55,0,0,1-.41-0.18,0.94,0.94,0,0,1-.23-0.54,6.71,6.71,0,0,1-.07-1C72.47,46.73,72.49,46.21,72.53,45.83Z" transform="translate(-1.89 -1.37)" fill="#231f20"/><path d="M76,45.85l1.56,3.6H77.8l1.55-3.65A3,3,0,0,1,79.77,45a0.61,0.61,0,0,1,.36-0.16V44.67H78.6v0.19A0.6,0.6,0,0,1,79,45a0.31,0.31,0,0,1,.12.25,2.93,2.93,0,0,1-.27.91l-0.61,1.51-0.76-1.74a2.2,2.2,0,0,1-.22-0.69,0.33,0.33,0,0,1,.12-0.26,0.45,0.45,0,0,1,.32-0.08V44.67H75.22v0.19a0.59,0.59,0,0,1,.34.17A3.6,3.6,0,0,1,76,45.85Z" transform="translate(-1.89 -1.37)" fill="#231f20"/><path d="M80.32,48.66a1.76,1.76,0,0,0,1.56.8,1.82,1.82,0,0,0,1.06-.32A2.83,2.83,0,0,0,83.78,48l-0.17-.11a2.22,2.22,0,0,1-.52.6,1,1,0,0,1-.54.16,1,1,0,0,1-.83-0.41,2.4,2.4,0,0,1-.49-1.46h2.55a2.6,2.6,0,0,0-.56-1.71A1.58,1.58,0,0,0,82,44.53a1.94,1.94,0,0,0-1.48.69,2.64,2.64,0,0,0-.63,1.85A2.79,2.79,0,0,0,80.32,48.66Zm0.88-2.34a2.17,2.17,0,0,1,.29-1.21,0.49,0.49,0,0,1,.42-0.25,0.43,0.43,0,0,1,.28.09,0.87,0.87,0,0,1,.27.45,4.44,4.44,0,0,1,.09,1.1H81.21V46.32Z" transform="translate(-1.89 -1.37)" fill="#231f20"/><path d="M86.59,49.14a1.06,1.06,0,0,1-.4-0.08,0.39,0.39,0,0,1-.17-0.2,1.17,1.17,0,0,1,0-.36V47.15a3.38,3.38,0,0,1,.16-1.06,1,1,0,0,1,.31-0.48,0.41,0.41,0,0,1,.27-0.11,0.23,0.23,0,0,1,.11,0l0.23,0.19a0.67,0.67,0,0,0,.46.17,0.5,0.5,0,0,0,.39-0.18,0.75,0.75,0,0,0,.16-0.52,0.65,0.65,0,0,0-.17-0.48,0.57,0.57,0,0,0-.44-0.18,1.2,1.2,0,0,0-.67.24,3.42,3.42,0,0,0-.81,1V44.67h-1.9v0.19a0.71,0.71,0,0,1,.33.09,0.39,0.39,0,0,1,.14.2,1.85,1.85,0,0,1,0,.51v2.57a1.52,1.52,0,0,1-.11.75,0.55,0.55,0,0,1-.41.16v0.18h2.51V49.14Z" transform="translate(-1.89 -1.37)" fill="#231f20"/><path d="M90.72,49.14A0.52,0.52,0,0,1,90.36,49a1.42,1.42,0,0,1-.09-0.66V45.81a1,1,0,0,1,.8-0.61,0.35,0.35,0,0,1,.23.09,0.41,0.41,0,0,1,.15.23,3.39,3.39,0,0,1,0,.72V48.3a1.43,1.43,0,0,1-.08.62,0.51,0.51,0,0,1-.38.22v0.18h2.35V49.14A0.6,0.6,0,0,1,93,49a1.43,1.43,0,0,1-.09-0.67V46.49a4.81,4.81,0,0,0-.08-1.09,1.19,1.19,0,0,0-.4-0.62,1.12,1.12,0,0,0-.75-0.26,1.44,1.44,0,0,0-.71.18,2.67,2.67,0,0,0-.69.56v-0.6H88.37v0.19a0.58,0.58,0,0,1,.4.17,1.33,1.33,0,0,1,.1.66V48.3a1.42,1.42,0,0,1-.08.65,0.6,0.6,0,0,1-.42.19v0.18h2.35V49.14Z" transform="translate(-1.89 -1.37)" fill="#231f20"/><path d="M96.15,49.14A0.53,0.53,0,0,1,95.74,49a1.5,1.5,0,0,1-.09-0.65V45.81a2,2,0,0,1,.5-0.53,0.66,0.66,0,0,1,.36-0.11,0.39,0.39,0,0,1,.25.09,0.45,0.45,0,0,1,.17.25,3.61,3.61,0,0,1,0,.79v2a2.1,2.1,0,0,1,0,.53,0.4,0.4,0,0,1-.15.21,0.54,0.54,0,0,1-.3.1v0.18h2.41V49.14a0.52,0.52,0,0,1-.44-0.2,1.42,1.42,0,0,1-.08-0.63V45.81a1.88,1.88,0,0,1,.44-0.47,0.71,0.71,0,0,1,.43-0.16,0.38,0.38,0,0,1,.25.09,0.45,0.45,0,0,1,.16.25,3.63,3.63,0,0,1,0,.79v2a1.31,1.31,0,0,1-.09.62,0.54,0.54,0,0,1-.42.22v0.18h2.4V49.14a0.61,0.61,0,0,1-.41-0.17,1.4,1.4,0,0,1-.09-0.67V46.4a3.6,3.6,0,0,0-.11-1.08,1.09,1.09,0,0,0-.4-0.56,1.21,1.21,0,0,0-.76-0.23,1.59,1.59,0,0,0-.77.2,3,3,0,0,0-.76.65,1.33,1.33,0,0,0-.47-0.64,1.31,1.31,0,0,0-.75-0.21,1.52,1.52,0,0,0-.71.17,2.62,2.62,0,0,0-.71.58V44.67H93.76v0.19a0.58,0.58,0,0,1,.4.17,1.32,1.32,0,0,1,.1.66V48.3a1.41,1.41,0,0,1-.09.65,0.59,0.59,0,0,1-.42.19v0.18h2.39V49.14Z" transform="translate(-1.89 -1.37)" fill="#231f20"/><path d="M103.83,49.45a1.82,1.82,0,0,0,1.06-.32,2.85,2.85,0,0,0,.83-1.09l-0.17-.11a2.23,2.23,0,0,1-.52.6,1,1,0,0,1-.54.16,1,1,0,0,1-.83-0.41,2.4,2.4,0,0,1-.49-1.46h2.55a2.61,2.61,0,0,0-.56-1.71,1.58,1.58,0,0,0-1.22-.58,1.94,1.94,0,0,0-1.48.69,2.63,2.63,0,0,0-.63,1.85,2.8,2.8,0,0,0,.43,1.59A1.76,1.76,0,0,0,103.83,49.45Zm-0.68-3.14a2.17,2.17,0,0,1,.29-1.21,0.49,0.49,0,0,1,.42-0.25,0.42,0.42,0,0,1,.28.09,0.87,0.87,0,0,1,.27.45,4.49,4.49,0,0,1,.09,1.1h-1.35V46.32Z" transform="translate(-1.89 -1.37)" fill="#231f20"/><path d="M108.25,49.14a0.53,0.53,0,0,1-.36-0.18,1.45,1.45,0,0,1-.09-0.66V45.81a1,1,0,0,1,.8-0.61,0.35,0.35,0,0,1,.23.09,0.41,0.41,0,0,1,.15.23,3.16,3.16,0,0,1,0,.72V48.3a1.46,1.46,0,0,1-.08.62,0.51,0.51,0,0,1-.38.22v0.18h2.35V49.14a0.6,0.6,0,0,1-.4-0.16,1.39,1.39,0,0,1-.1-0.67V46.49a4.77,4.77,0,0,0-.08-1.09,1.19,1.19,0,0,0-.4-0.62,1.11,1.11,0,0,0-.75-0.26,1.44,1.44,0,0,0-.71.18,2.66,2.66,0,0,0-.69.56v-0.6H105.9v0.19a0.59,0.59,0,0,1,.4.17,1.36,1.36,0,0,1,.1.66V48.3a1.41,1.41,0,0,1-.08.65,0.6,0.6,0,0,1-.42.19v0.18h2.35V49.14Z" transform="translate(-1.89 -1.37)" fill="#231f20"/><path d="M111.5,47.67a5,5,0,0,0,0,.91,1.11,1.11,0,0,0,.39.55,1.17,1.17,0,0,0,.75.24,1.36,1.36,0,0,0,1.31-1l-0.15-.11a0.8,0.8,0,0,1-.61.49,0.29,0.29,0,0,1-.18-0.07,0.42,0.42,0,0,1-.14-0.19,2.64,2.64,0,0,1,0-.52V45.16H114V44.67h-1.1V43h-0.16a5.53,5.53,0,0,1-.77,1.09,6.25,6.25,0,0,1-1.06.93v0.18h0.6v2.51Z" transform="translate(-1.89 -1.37)" fill="#231f20"/><rect x="0.03" y="52.58" width="128.3" height="0.49" fill="#231f20"/></svg>
